<?xml version="1.0" encoding="UTF-8"?>
<svg id="_레이어_2" data-name="레이어 2" xmlns="http://www.w3.org/2000/svg" viewBox="0 0 768 1024">
  <defs>
    <style>
      .cls-1 {
        fill: #fff;
      }
    </style>
  </defs>
  <g id="Seungill_s_portfolio" data-name="Seungill&amp;apos;sportfolio">
    <g>
      <path class="cls-1" d="m510.56,511.26c-.6,0-1.24.18-1.91.55-.67.36-1.31.82-1.94,1.38-.62.55-1.21,1.14-1.77,1.77-.55.62-1.02,1.19-1.39,1.69-.38.52-.79,1.2-1.25,2.05-.46.84-.89,1.74-1.28,2.69-.4.95-.73,1.9-1,2.86-.27.96-.41,1.81-.41,2.56,0,.38.07.75.2,1.12.13.38.32.71.56,1.02.24.3.52.55.84.75.32.2.68.3,1.08.3.58,0,1.33-.17,2.25-.5.92-.33,1.89-.79,2.92-1.38,1.03-.58,2.06-1.28,3.09-2.09s1.97-1.7,2.81-2.67,1.53-1.99,2.05-3.06c.52-1.07.78-2.17.78-3.3,0-1.77-.48-3.17-1.45-4.19-.97-1.02-2.37-1.53-4.2-1.53Z"/>
      <path class="cls-1" d="m422.75,514.86c-.06-.19-.14-.34-.23-.45-.09-.12-.19-.22-.3-.33-.21-.23-.44-.51-.69-.83-.25-.32-.48-.64-.7-.94-.22-.3-.42-.56-.59-.78-.18-.22-.31-.33-.39-.33-.54,0-1.11.19-1.7.56-.59.38-1.18.89-1.77,1.53-.58.65-1.15,1.41-1.7,2.28-.55.88-1.07,1.82-1.55,2.84-.4.85-.79,1.78-1.17,2.78-.39,1-.73,2.02-1.05,3.06-.31,1.04-.56,2.07-.75,3.08-.19,1.01-.28,1.95-.28,2.83,0,.54.22,1.02.67,1.42.45.41,1.1.61,1.95.61.38,0,.86-.12,1.47-.38.6-.25,1.23-.56,1.88-.92.65-.37,1.26-.76,1.84-1.19.58-.43,1.04-.82,1.38-1.17.94-.98,1.67-1.88,2.19-2.7.52-.82.91-1.67,1.16-2.55s.4-1.83.45-2.86c.05-1.03.08-2.27.08-3.7,0-.48-.02-.87-.05-1.16-.03-.29-.08-.53-.14-.72Z"/>
      <path class="cls-1" d="m408.53,452.76c.58-.33,1.16-.73,1.72-1.19.56-.46,1.08-.95,1.55-1.47.47-.52.86-1.05,1.19-1.58.32-.53.54-1.05.64-1.55.08-.5.17-1.09.27-1.77.09-.68.18-1.41.25-2.2.07-.79.13-1.62.17-2.48.04-.86.06-1.74.06-2.64,0-.23-.12-.43-.34-.59-.23-.17-.5-.25-.81-.25-.35,0-.92.3-1.69.91-.77.6-1.63,1.43-2.58,2.47-.95,1.04-1.93,2.26-2.94,3.64-1.01,1.39-1.93,2.86-2.77,4.42-.23.42-.45.91-.66,1.48-.21.57-.4,1.17-.56,1.78-.17.61-.31,1.23-.42,1.86-.12.62-.2,1.2-.27,1.72,1.15-.25,2.38-.59,3.69-1.03s2.48-.95,3.5-1.53Z"/>
      <path class="cls-1" d="m306.66,511.26c-.6,0-1.24.18-1.91.55-.67.36-1.31.82-1.94,1.38-.62.55-1.21,1.14-1.77,1.77-.55.62-1.02,1.19-1.39,1.69-.38.52-.79,1.2-1.25,2.05-.46.84-.89,1.74-1.28,2.69-.4.95-.73,1.9-1,2.86-.27.96-.41,1.81-.41,2.56,0,.38.07.75.2,1.12.14.38.32.71.56,1.02.24.3.52.55.84.75.32.2.68.3,1.08.3.58,0,1.33-.17,2.25-.5.92-.33,1.89-.79,2.92-1.38,1.03-.58,2.06-1.28,3.09-2.09s1.97-1.7,2.81-2.67,1.53-1.99,2.05-3.06c.52-1.07.78-2.17.78-3.3,0-1.77-.48-3.17-1.45-4.19-.97-1.02-2.37-1.53-4.2-1.53Z"/>
      <path class="cls-1" d="m0,0v1024h768V0H0Zm507.52,436.42c0-.25.04-.6.09-1.05.05-.45.13-1.03.23-1.73.1-.71.25-1.6.44-2.69.02-.19.05-.37.08-.55.03-.18.07-.35.11-.52.1-.85.32-1.84.64-2.97.32-1.12.73-2.36,1.23-3.72.56-1.5,1.2-2.64,1.92-3.42s1.47-1.17,2.27-1.17c.98,0,1.74.31,2.28.94.54.62.81,1.38.81,2.25,0,.6-.25,1.49-.75,2.66-.21.46-.36.81-.45,1.06s-.18.52-.27.8c-.08.28-.19.64-.31,1.08s-.32,1.08-.59,1.94c-.21.71-.38,1.3-.5,1.78-.12.48-.22.93-.28,1.36-.06.43-.1.87-.12,1.33-.02.46-.03,1.03-.03,1.72,0,.96-.03,1.83-.09,2.61s-.21,1.45-.44,2c-.23.55-.57.98-1.02,1.28-.45.3-1.05.45-1.8.45-.56,0-1.06-.16-1.5-.47s-.8-.71-1.09-1.19c-.29-.48-.51-1-.66-1.56-.15-.56-.22-1.08-.22-1.56,0-.19,0-.41.02-.66Zm-69.25-12.22c.09-.23.2-.46.31-.7.11-.24.22-.5.31-.8.09-.29.14-.66.14-1.09,0-.54.08-1.06.25-1.55.17-.49.41-.92.72-1.28.31-.36.69-.66,1.12-.88s.94-.33,1.5-.33c.27,0,.65.02,1.14.05.49.03.97.13,1.45.3.48.17.9.44,1.25.81.35.38.53.91.53,1.59,0,.35-.08.78-.23,1.27-.16.49-.36,1-.61,1.53s-.53,1.06-.84,1.59-.64,1.01-.97,1.42c-.33.42-.65.76-.94,1.02-.29.26-.55.39-.78.39-.31,0-.72-.05-1.22-.16-.5-.1-1-.27-1.48-.48-.49-.22-.91-.48-1.27-.8-.35-.31-.53-.68-.53-1.09,0-.31.05-.58.14-.81Zm-7.86,30.41c.06-1.19.14-2.37.23-3.55.09-1.18.2-2.29.33-3.33.12-1.04.24-1.91.34-2.59.06-.31.11-.67.14-1.06.03-.4.06-.8.08-1.2.02-.41.04-.79.05-1.16,0-.36.02-.67.02-.92,0-.27.11-.69.33-1.27.22-.57.53-1.16.94-1.75s.9-1.11,1.48-1.56c.58-.45,1.24-.67,1.97-.67,1.19,0,2.12.24,2.8.72.68.48,1.02,1.35,1.02,2.62,0,.25-.07.67-.2,1.27-.14.59-.31,1.31-.52,2.14-.21.83-.43,1.76-.67,2.77-.24,1.01-.46,2.07-.67,3.17-.21,1.1-.38,2.22-.52,3.36-.14,1.14-.2,2.23-.2,3.3,0,.73.04,1.41.12,2.03.08.62.2,1.16.34,1.61.15.45.32.8.52,1.05.2.25.4.38.61.38.83,0,1.69-.14,2.56-.42s1.85-.79,2.92-1.52c1.07-.73,2.3-1.73,3.67-3.02s2.98-2.92,4.81-4.92c.65-.69,1.23-1.32,1.77-1.91.53-.58,1.06-1.17,1.59-1.75.53-.58,1.08-1.2,1.66-1.84.57-.65,1.21-1.39,1.92-2.22.17-.23.41-.4.72-.52.02,0,.03,0,.05-.01.08-.51.16-1,.25-1.52.36-2.14.79-4.27,1.28-6.39.49-2.12,1.04-4.17,1.66-6.12.61-1.96,1.29-3.68,2.02-5.17.73-1.49,1.52-2.68,2.36-3.58.84-.9,1.74-1.34,2.7-1.34.73,0,1.28.27,1.64.81.36.54.55,1.41.55,2.59-.33,1.06-.62,2-.88,2.8-.25.8-.53,1.68-.83,2.62-.3.95-.58,1.84-.84,2.69-.26.84-.49,1.58-.69,2.2-.2.62-.32,1.01-.36,1.16-.54,1.85-1.03,3.72-1.45,5.61-.43,1.89-.79,3.74-1.09,5.56-.3,1.82-.53,3.6-.69,5.33-.16,1.73-.23,3.38-.23,4.94,0,.77.08,1.44.25,2.02.17.57.38,1.04.66,1.39.27.35.59.62.95.8.36.18.74.27,1.14.27.69,0,1.47-.19,2.34-.56s1.79-.89,2.75-1.55c.96-.66,1.94-1.41,2.95-2.27,1.01-.85,2.01-1.77,3-2.73.99-.97,1.95-1.96,2.88-2.98.74-.82,1.43-1.61,2.08-2.39.01-.13.01-.25.02-.38.15-1.76.34-3.58.59-5.45s.55-3.77.91-5.67c.35-1.91.74-3.74,1.16-5.5.42-1.76.86-3.41,1.33-4.95.47-1.54.95-2.88,1.44-4.02.49-1.14.98-2.03,1.48-2.69s.99-.98,1.47-.98c.42,0,.8.08,1.14.25.34.17.65.38.92.62.27.25.51.54.72.86.21.32.38.64.53.95-.08.92-.25,2.07-.5,3.47-.25,1.4-.55,2.88-.89,4.45-.34,1.57-.7,3.17-1.06,4.78-.37,1.61-.7,3.11-1.02,4.48-.23,1.02-.43,2.09-.59,3.22-.17,1.12-.31,2.25-.42,3.38-.12,1.12-.2,2.23-.25,3.33-.05,1.09-.08,2.13-.08,3.11,0,3.21.36,5.67,1.09,7.38.73,1.71,1.95,2.56,3.66,2.56,1.06,0,2.09-.18,3.08-.55.99-.36,1.94-.83,2.84-1.41.91-.57,1.76-1.22,2.56-1.95.8-.73,1.53-1.45,2.17-2.16.48-.52.97-1,1.48-1.45.51-.45.94-.67,1.3-.67.58,0,.94.11,1.06.34.12.23.19.64.19,1.22,0,.29-.1.68-.31,1.16-.21.48-.46.98-.77,1.52-.3.53-.62,1.05-.97,1.56-.34.51-.65.93-.92,1.27-.83,1.02-1.77,2.01-2.8,2.95-1.03.95-2.12,1.78-3.25,2.5-1.14.72-2.3,1.29-3.5,1.72-1.2.43-2.38.64-3.55.64-1.83,0-3.41-.34-4.72-1.02s-2.4-1.67-3.25-2.98c-.85-1.31-1.48-2.93-1.89-4.84-.28-1.31-.45-2.77-.54-4.33-.78.95-1.59,1.9-2.46,2.85-1.14,1.24-2.34,2.44-3.61,3.59-1.27,1.16-2.55,2.18-3.84,3.06-1.29.89-2.57,1.6-3.83,2.14-1.26.54-2.47.81-3.64.81-1.71,0-3.1-.3-4.19-.89-1.08-.59-1.93-1.38-2.55-2.36-.62-.98-1.03-2.1-1.25-3.36-.22-1.26-.33-2.56-.33-3.89,0-.75.06-1.86.19-3.33,0,0,0-.02,0-.02-.39.47-.77.93-1.17,1.4-.68.78-1.31,1.48-1.89,2.11-1.92,2.06-3.72,3.85-5.42,5.38-1.7,1.52-3.31,2.78-4.84,3.78s-2.98,1.74-4.36,2.22c-1.38.48-2.7.72-3.97.72s-2.28-.23-3.2-.7c-.93-.47-1.7-1.11-2.33-1.92s-1.09-1.77-1.41-2.86-.47-2.28-.47-3.55c0-1,.03-2.09.09-3.28Zm50.44,36.44c0,.69-.1,1.34-.31,1.95-.21.61-.51,1.19-.91,1.73-.79,1.1-2.01,1.66-3.66,1.66-.58,0-1.18-.05-1.78-.16-.6-.1-1.15-.25-1.62-.44-.48-.19-.88-.43-1.19-.72-.31-.29-.47-.62-.47-1,0-.65.17-1.33.5-2.05.33-.72.77-1.39,1.3-2,.53-.61,1.11-1.12,1.75-1.53.63-.41,1.24-.61,1.83-.61.73,0,1.38.05,1.94.14s1.04.26,1.42.48c.38.23.68.55.89.97.21.42.31.94.31,1.56Zm-239.3-24.64c-1.01.26-2.02.48-3.02.67s-1.96.33-2.89.44c-.93.1-1.77.16-2.52.16-.4,0-.88-.05-1.45-.14-.57-.09-1.18-.22-1.81-.39-.64-.17-1.27-.36-1.91-.59-.64-.23-1.2-.49-1.7-.78-.5-.29-.91-.6-1.22-.94s-.47-.69-.47-1.06c0-.33.06-.74.19-1.22.12-.48.31-.94.55-1.39.24-.45.52-.83.84-1.16s.67-.48,1.05-.48c.52,0,1.01.06,1.47.19.46.12.97.27,1.55.42.57.16,1.24.3,2,.44.76.14,1.7.2,2.83.2s2.3-.12,3.52-.36c1.22-.24,2.42-.56,3.61-.97s2.32-.87,3.41-1.39c1.08-.52,2.06-1.06,2.94-1.62.38-.25.79-.54,1.23-.86.45-.32.86-.68,1.25-1.06s.71-.79.97-1.2c.26-.42.39-.84.39-1.28,0-.5-.38-.98-1.12-1.44v.03c-1.1-.67-2.2-1.18-3.28-1.53-1.08-.35-2.03-.65-2.84-.88-2.29-.58-5.08-1.51-8.38-2.78h.03c-1.38-.54-2.71-1.24-4-2.09-1.29-.85-2.41-1.75-3.34-2.69-2.08-2.31-3.12-4.98-3.12-8,0-1.19.33-2.34,1-3.47.67-1.12,1.57-2.18,2.72-3.17,1.15-.99,2.47-1.9,3.98-2.73,1.51-.83,3.12-1.55,4.83-2.14,1.71-.59,3.45-1.06,5.23-1.39,1.78-.33,3.5-.5,5.17-.5.52,0,1.17.04,1.95.11.78.07,1.58.18,2.41.31.82.14,1.61.3,2.36.5.75.2,1.34.42,1.78.67h-.03c1.21.65,2.16,1.42,2.86,2.31.7.9,1.05,1.77,1.05,2.62,0,.29-.04.65-.11,1.06-.07.42-.18.85-.33,1.3-.15.45-.31.88-.48,1.28-.18.41-.38.73-.61.98h.03c-.67.79-2.24,1.19-4.72,1.19,0-.9-.04-1.67-.11-2.33-.07-.66-.19-1.18-.36-1.58-.15-.33-.41-.61-.78-.84-.38-.23-.8-.42-1.27-.56-.47-.15-.94-.25-1.42-.33-.48-.07-.9-.11-1.25-.11-.9,0-1.77.02-2.62.06-.85.04-1.69.12-2.52.25-.82.12-1.66.3-2.5.53-.84.23-1.7.52-2.58.88-.62.25-1.29.56-1.98.94-.7.38-1.35.8-1.95,1.27-.6.47-1.12.98-1.55,1.53-.43.55-.69,1.14-.8,1.77l.03-.06c0,.5.17,1.06.5,1.67.33.61.79,1.22,1.36,1.81.57.59,1.23,1.14,1.98,1.62.75.49,1.54.85,2.38,1.08.06.02.24.08.53.19.29.1.65.22,1.06.36.42.14.86.29,1.33.45.47.17.91.32,1.31.45.41.14.75.25,1.03.34s.44.15.48.17c4.83,1.23,8.42,2.71,10.75,4.44,2.33,1.73,3.5,3.85,3.5,6.38,0,.81-.18,1.62-.53,2.42-.35.8-.8,1.57-1.34,2.3-.54.73-1.13,1.4-1.77,2.02-.64.61-1.23,1.13-1.8,1.55l.03-.03c-.6.48-1.29.97-2.05,1.47-.76.5-1.58.99-2.45,1.47-.88.48-1.78.93-2.72,1.34s-1.9.78-2.88,1.09c-.92.29-1.88.57-2.89.83Zm77.36,51.72c-.06.55-.17,1.09-.31,1.61-.15.52-.32,1.04-.53,1.56-.21.52-.46,1.09-.75,1.72-.35.77-.92,1.63-1.69,2.58-.77.95-1.68,1.9-2.72,2.86-1.04.96-2.18,1.89-3.42,2.8-1.24.91-2.52,1.71-3.84,2.42-1.32.71-2.64,1.28-3.95,1.7-1.31.43-2.56.64-3.75.64-1.54,0-2.89-.25-4.03-.75-1.15-.5-2.1-1.16-2.88-1.97-.77-.81-1.34-1.74-1.72-2.78-.38-1.04-.56-2.1-.56-3.19,0-1,.18-2.16.53-3.48.25-.92.56-1.85.91-2.77-.59.35-1.21.7-1.86,1.06-1.34.74-2.77,1.5-4.27,2.28s-2.99,1.54-4.47,2.27c-1.48.73-2.92,1.43-4.31,2.09-1.4.67-2.66,1.26-3.78,1.78-.73.33-1.45.73-2.17,1.2s-1.42.92-2.09,1.34c-.68.43-1.33.79-1.97,1.09-.64.3-1.23.45-1.8.45-.6,0-1.18-.07-1.73-.22-.55-.15-1.04-.37-1.47-.67-.43-.3-.77-.69-1.02-1.17-.25-.48-.38-1.06-.38-1.75,0-.56.2-1.05.59-1.45.4-.41.88-.76,1.45-1.06.57-.3,1.18-.56,1.81-.78.64-.22,1.18-.41,1.64-.58.62-.23,1.21-.42,1.77-.58.55-.16,1-.33,1.36-.52.56-.31,1.09-.71,1.59-1.2.5-.49.97-1.03,1.42-1.62.45-.59.87-1.22,1.27-1.88.4-.66.77-1.29,1.12-1.89.23-.38.43-.8.59-1.28.17-.48.31-.96.44-1.44.12-.48.22-.93.28-1.36.06-.43.09-.8.09-1.11,0-1.1-.19-1.98-.56-2.64-.38-.66-.84-.98-1.41-.98-.46,0-1,.17-1.62.52s-1.26.76-1.91,1.25c-.65.49-1.26,1-1.84,1.55-.58.54-1.05,1-1.41,1.38-.83.9-1.71,1.9-2.64,3.02-.93,1.11-1.81,2.27-2.66,3.47-.84,1.2-1.61,2.42-2.31,3.66-.7,1.24-1.25,2.45-1.64,3.64-.25.71-.44,1.52-.56,2.44-.12.92-.22,1.88-.3,2.88-.07,1-.13,2.02-.17,3.05-.04,1.03-.09,2.03-.16,2.98-.1,1.56-.16,3.12-.17,4.67-.01,1.55-.14,2.97-.39,4.27-.08.42-.23.81-.44,1.19-.21.38-.47.71-.8,1-.32.29-.7.53-1.14.7-.44.18-.93.27-1.47.27-.33,0-.71-.08-1.14-.23-.43-.16-.83-.38-1.2-.66s-.69-.61-.95-.97c-.26-.37-.39-.76-.39-1.17,0-.44.02-.96.06-1.58.04-.62.1-1.27.17-1.97.07-.7.15-1.41.23-2.12.08-.72.17-1.4.25-2.03.08-.64.16-1.2.22-1.7s.11-.88.16-1.12c.27-1.98.52-4.21.75-6.7.23-2.49.41-5.05.53-7.67.04-.67.08-1.5.11-2.5s.06-2.01.09-3.02c.03-1.01.06-1.94.09-2.78s.06-1.45.08-1.83c.19-2.19.61-3.82,1.28-4.91.67-1.08,1.64-1.62,2.91-1.62.5,0,.98.11,1.44.33.46.22.86.51,1.2.88.34.36.62.77.83,1.2.21.44.31.88.31,1.31,0,.4-.04.91-.12,1.53-.08.62-.18,1.28-.3,1.97-.11.69-.24,1.36-.38,2.03-.14.67-.26,1.23-.36,1.69.44-.73.91-1.5,1.42-2.31.51-.81,1.03-1.61,1.55-2.39.52-.78,1.04-1.51,1.56-2.19.52-.68,1.02-1.24,1.5-1.7.88-.85,1.76-1.65,2.66-2.39.9-.74,1.81-1.38,2.75-1.92.94-.54,1.92-.97,2.94-1.28,1.02-.31,2.09-.47,3.22-.47.88,0,1.74.21,2.61.64.86.43,1.64,1.04,2.33,1.84.69.8,1.25,1.77,1.69,2.91.44,1.14.66,2.42.66,3.86,0,.71-.11,1.47-.33,2.3-.22.82-.52,1.64-.89,2.45s-.82,1.59-1.34,2.34c-.52.75-1.09,1.42-1.72,2,1.31-.67,2.7-1.4,4.16-2.19,1.46-.79,2.92-1.62,4.39-2.47,1.47-.85,2.92-1.71,4.34-2.58,1.43-.87,2.74-1.68,3.95-2.45.54-.35,1.01-.64,1.42-.89.5-.53,1.04-1.04,1.64-1.55,1.04-.88,2.2-1.65,3.47-2.33,1.27-.68,2.63-1.22,4.08-1.64,1.45-.42,2.94-.62,4.48-.62,1.23,0,2.44.29,3.62.88,1.19.58,2.24,1.36,3.17,2.33.93.97,1.67,2.09,2.23,3.38.56,1.28.84,2.63.84,4.05,0,.67-.03,1.28-.09,1.83Zm33.98-7.02c-.14.38-.32.74-.56,1.09-.24.35-.53.66-.88.92-.34.26-.73.39-1.17.39-.25,0-.59-.01-1.02-.03-.43-.02-.84-.03-1.23-.03-.85,0-1.69.25-2.52.77-.82.51-1.63,1.25-2.42,2.23-.5.62-1.05,1.43-1.64,2.41-.59.98-1.18,2.06-1.77,3.23-.58,1.18-1.16,2.4-1.72,3.66-.56,1.26-1.06,2.47-1.5,3.64-.23.58-.45,1.22-.67,1.92-.22.7-.42,1.41-.61,2.12s-.36,1.45-.52,2.19c-.16.74-.3,1.45-.42,2.14-.02.23-.18.47-.48.72-.3.25-.66.48-1.06.69-.41.21-.8.38-1.19.53-.39.14-.66.23-.83.25-.79,0-1.45-.26-1.97-.78-.52-.52-.93-1.17-1.23-1.94-.3-.77-.51-1.6-.62-2.5-.11-.9-.17-1.72-.17-2.47,0-.6.01-1.34.03-2.2.02-.87.05-1.78.09-2.75.04-.97.08-1.95.11-2.95s.07-1.94.11-2.83c.04-.89.07-1.68.09-2.39.02-.71.03-1.25.03-1.62v-4.39c0-.24.02-.47.06-.7.06-.58.22-1.11.48-1.59.26-.48.59-.89.98-1.23.4-.34.83-.61,1.31-.8.48-.19.97-.28,1.47-.28.33,0,.66.07.98.2.32.14.62.3.89.5.27.2.51.41.72.62.21.22.36.41.47.58.17.27.29.53.36.78.07.25.11.57.11.97,0,.5-.03,1-.08,1.5-.05.5-.12.91-.2,1.22-.12.52-.27,1.12-.44,1.8-.17.68-.33,1.4-.48,2.16-.16.76-.3,1.56-.44,2.41-.14.84-.23,1.7-.3,2.58.33-.83.74-1.82,1.23-2.95.49-1.14,1.04-2.3,1.64-3.48.6-1.19,1.24-2.34,1.92-3.45.68-1.12,1.36-2.08,2.05-2.89.5-.58,1.06-1.15,1.67-1.69.61-.54,1.27-1.03,1.95-1.45.69-.43,1.41-.77,2.17-1.02.76-.25,1.55-.38,2.36-.38.62,0,1.23.08,1.83.25.59.17,1.13.41,1.61.73.48.32.86.71,1.16,1.17.29.46.44.97.44,1.53,0,.23-.07.53-.2.91Zm.23-49.84c-2.62-.58-3.94-3.09-3.94-7.53,0-1.12.12-2.78.38-4.97.02-.16.04-.32.06-.48-1,1.23-2.02,2.42-3.09,3.54-1.31,1.38-2.63,2.58-3.95,3.61-1.32,1.03-2.63,1.85-3.92,2.45-1.29.6-2.52.91-3.69.91s-2.28-.18-3.27-.55c-.99-.36-1.85-.95-2.58-1.77-.73-.81-1.3-1.85-1.7-3.12-.41-1.27-.61-2.81-.61-4.62-.33.54-.73,1.15-1.2,1.83-.47.68-.97,1.36-1.5,2.05s-1.08,1.35-1.66,2c-.57.65-1.14,1.21-1.7,1.69-.5.44-1.12.96-1.86,1.58-.74.61-1.58,1.21-2.53,1.78-.95.57-2,1.07-3.14,1.5-1.15.43-2.38.67-3.69.73-1.71,0-3.06-.3-4.05-.89-.99-.59-1.73-1.35-2.23-2.28-.5-.93-.82-1.95-.95-3.08-.14-1.12-.2-2.22-.2-3.28,0-.1.02-.4.05-.88.03-.48.08-1.07.16-1.78.06-.63.16-1.34.27-2.1-1.2,1.49-2.52,2.98-3.96,4.46-1.47,1.51-3.04,2.97-4.72,4.38-1.68,1.41-3.38,2.65-5.09,3.73-1.72,1.08-3.43,1.95-5.14,2.61-1.71.66-3.33.98-4.88.98-1.96,0-3.67-.27-5.12-.81-1.46-.54-2.67-1.33-3.62-2.36-.96-1.03-1.68-2.29-2.16-3.78-.48-1.49-.72-3.18-.72-5.08,0-1.44.11-2.96.33-4.56.22-1.6.62-3.23,1.2-4.89.58-1.66,1.37-3.32,2.36-5,.99-1.68,2.25-3.3,3.8-4.86,1.19-1.21,2.47-2.12,3.84-2.75s2.69-.94,3.94-.94c.23,0,.52.05.88.14.35.09.71.22,1.06.39.35.17.7.36,1.03.59.33.23.6.48.81.75.67.85,1.17,1.66,1.5,2.42.33.76.5,1.62.5,2.58,0,1.5-.21,2.85-.62,4.06-.42,1.21-.98,2.34-1.7,3.39-.72,1.05-1.57,2.07-2.55,3.05s-2.03,2-3.16,3.06c-.69.65-1.54,1.35-2.56,2.11-1.02.76-2.11,1.59-3.28,2.48.17.65.38,1.2.62,1.67s.56.86.94,1.17.83.55,1.36.7,1.16.23,1.89.23c.98,0,2.03-.17,3.14-.5,1.11-.33,2.23-.76,3.36-1.28.98-.46,1.95-1.04,2.91-1.73.96-.7,1.93-1.42,2.91-2.17.6-.46,1.38-1.12,2.33-1.98.95-.86,1.91-1.77,2.89-2.7.67-.62,1.33-1.23,2-1.83.67-.59,1.38-1.25,2.12-1.98l1.66-1.62c.53-.43,1-.75,1.45-.99.2-.62.41-1.22.65-1.8.19-.44.37-.84.55-1.2.18-.36.38-.68.61-.94.23-.26.51-.47.84-.64.33-.17.75-.26,1.25-.28.65,0,1.18.11,1.61.33.43.22.77.5,1.03.83.26.33.44.71.55,1.12.1.42.16.82.16,1.22,0,.31-.14.86-.42,1.66-.28.79-.59,1.77-.92,2.94-.33,1.17-.64,2.5-.92,4s-.42,3.11-.42,4.84c0,.88.15,1.57.44,2.08.29.51.68.77,1.16.77.67,0,1.32-.1,1.95-.31.64-.21,1.25-.48,1.86-.81.6-.33,1.19-.71,1.77-1.14.57-.43,1.12-.86,1.64-1.3.62-.52,1.31-1.19,2.05-2,.74-.81,1.46-1.67,2.17-2.58.71-.91,1.36-1.8,1.97-2.67.6-.88,1.08-1.64,1.44-2.28.19-.33.41-.78.66-1.33.25-.55.49-1.13.72-1.73.23-.6.44-1.18.62-1.73.19-.55.32-.99.41-1.33.06-.29.12-.55.17-.77.05-.22.1-.44.16-.67.05-.23.12-.47.2-.72.08-.25.19-.53.31-.84.08-.21.24-.43.47-.67.23-.24.49-.46.8-.66.3-.2.62-.36.97-.5.34-.14.67-.2.98-.2.94,0,1.66.27,2.16.8s.77,1.18.81,1.95c-.08.42-.22,1.11-.42,2.08-.2.97-.4,2.05-.61,3.25-.21,1.2-.39,2.44-.53,3.72-.15,1.28-.22,2.45-.22,3.52,0,1.83.25,3.28.77,4.33.51,1.05,1.23,1.58,2.17,1.58.71,0,1.45-.19,2.23-.58.78-.39,1.59-.9,2.42-1.55.83-.65,1.67-1.39,2.52-2.23s1.68-1.73,2.5-2.67c.82-.94,1.61-1.89,2.38-2.84.76-.96,1.47-1.86,2.14-2.72.81-1.05,1.55-1.94,2.24-2.69.15-.37.31-.74.48-1.09.25-.5.53-.9.84-1.19.31-.29.63-.51.95-.66.32-.15.66-.24,1.02-.28.35-.04.71-.06,1.06-.06.31,0,.61.08.91.23.29.16.55.38.78.67.23.29.41.65.55,1.06.14.42.2.9.2,1.44,0,.48-.04.94-.12,1.38-.08.44-.2.89-.34,1.36-.15.47-.3.96-.45,1.48-.16.52-.32,1.11-.48,1.78-.1.44-.26,1-.45,1.69-.2.69-.4,1.4-.59,2.14-.2.74-.38,1.46-.55,2.17-.17.71-.27,1.3-.31,1.78.38-.44.81-.98,1.3-1.64.49-.66,1-1.36,1.55-2.12.54-.76,1.09-1.54,1.66-2.33.56-.79,1.12-1.54,1.69-2.25.73-.92,1.45-1.78,2.16-2.59.71-.81,1.45-1.52,2.23-2.11s1.63-1.06,2.55-1.41c.92-.34,1.95-.52,3.09-.52,1.35,0,2.46.28,3.31.83.85.55,1.54,1.32,2.05,2.3.51.98.89,2.14,1.14,3.48s.45,2.81.59,4.39c.08.81.19,1.65.33,2.5.14.85.34,1.63.61,2.33.27.7.62,1.27,1.06,1.72.44.45.98.67,1.62.67.96,0,2-.25,3.14-.77,1.13-.51,2.33-1.21,3.58-2.11,1.25-.9,2.53-1.94,3.84-3.12s2.62-2.46,3.94-3.81c.42-.44.82-.87,1.2-1.3.38-.43.75-.81,1.11-1.16.33-.32.64-.57.96-.77.16-.24.32-.47.48-.68,1-1.38,2.09-2.62,3.28-3.75s2.38-2.09,3.58-2.91c1.2-.81,2.35-1.44,3.47-1.88,1.11-.44,2.1-.66,2.95-.66.69,0,1.44.07,2.27.2.82.14,1.59.36,2.3.67.71.31,1.3.73,1.78,1.27.48.53.72,1.19.72,1.98,0,.4-.02.85-.06,1.36-.04.51-.09,1.05-.14,1.62-.05.57-.1,1.16-.14,1.77-.04.6-.06,1.19-.06,1.75,0,1.08-.04,2.4-.12,3.95-.08,1.55-.21,3.36-.38,5.42-.1,1.27-.25,2.77-.44,4.48s-.42,3.47-.7,5.25-.6,3.52-.95,5.2c-.35,1.69-.75,3.16-1.19,4.41-.44,1.23-1,2.4-1.69,3.5-.69,1.1-1.51,2.08-2.45,2.92-.95.84-2.03,1.51-3.23,2-1.21.49-2.54.73-4,.73-1.27,0-2.53-.17-3.78-.52s-2.44-.8-3.56-1.36-2.17-1.2-3.12-1.92c-.96-.72-1.79-1.47-2.5-2.25s-1.26-1.56-1.66-2.33c-.4-.77-.59-1.48-.59-2.12,0-1.23.6-1.84,1.81-1.84.29,0,.56.06.8.19.24.12.45.27.64.44.19.17.36.34.52.53s.3.34.42.47c.92.85,1.82,1.56,2.7,2.12.88.56,1.78,1.02,2.67,1.36.9.34,1.81.59,2.73.73.93.15,1.88.22,2.86.22,1.21,0,2.2-.31,2.97-.94.77-.62,1.39-1.44,1.86-2.44s.83-2.11,1.09-3.34c.26-1.23.48-2.44.67-3.62v.03c.23-1.5.43-2.95.59-4.34.17-1.4.3-2.75.41-4.06-.79.85-1.75,1.65-2.88,2.38-1.12.73-2.31,1.36-3.55,1.89-1.24.53-2.48.95-3.73,1.25-1.25.3-2.41.45-3.47.45-.4,0-.89-.05-1.48-.16-.59-.1-1.16-.28-1.69-.52-.53-.24-.99-.56-1.38-.97-.39-.41-.58-.91-.58-1.52,0-1.19.2-2.56.59-4.11.02-.08.05-.16.07-.24-.66.65-1.32,1.31-2.01,1.93-.94.84-1.88,1.58-2.81,2.2-.73.5-1.43.96-2.11,1.39-.68.43-1.38.81-2.09,1.14-.72.33-1.48.59-2.28.78-.8.19-1.68.28-2.64.28-1.56,0-2.86-.31-3.89-.94s-1.87-1.46-2.52-2.5c-.65-1.04-1.14-2.23-1.48-3.58s-.61-2.74-.8-4.2c-.27-1.98-.57-3.55-.91-4.7-.33-1.16-.74-1.73-1.22-1.73-.42,0-.82.1-1.22.3-.4.2-.89.62-1.48,1.27-.59.65-1.34,1.59-2.25,2.83-.91,1.24-2.09,2.89-3.55,4.95-.5.71-1.11,1.5-1.83,2.38s-1.47,1.71-2.27,2.52c-.79.8-1.58,1.51-2.36,2.12-.78.61-1.51,1.04-2.17,1.27Zm169.69,56.86c-.06.55-.17,1.09-.31,1.61-.15.52-.32,1.04-.53,1.56-.21.52-.46,1.09-.75,1.72-.35.77-.92,1.63-1.69,2.58-.77.95-1.68,1.9-2.72,2.86-1.04.96-2.18,1.89-3.42,2.8-1.24.91-2.52,1.71-3.84,2.42-1.32.71-2.64,1.28-3.95,1.7-1.31.43-2.56.64-3.75.64-1.54,0-2.89-.25-4.03-.75-1.15-.5-2.1-1.16-2.88-1.97-.77-.81-1.34-1.74-1.72-2.78-.34-.95-.52-1.92-.55-2.91-.98,1.03-2.02,2.04-3.14,3.03-1.29,1.15-2.67,2.25-4.12,3.31-1.44,1.04-2.85,1.85-4.25,2.42-1.4.57-2.72.86-3.97.86-1.46,0-2.72-.25-3.8-.73-1.07-.49-1.99-1.16-2.75-2-.76-.84-1.38-1.81-1.86-2.91-.48-1.09-.86-2.25-1.14-3.47-.22-.96-.37-1.94-.48-2.92-1.08,1.41-2.18,2.73-3.28,3.95-1.67,1.84-3.32,3.42-4.95,4.72-1.64,1.3-3.24,2.31-4.81,3.02-1.57.71-3.08,1.06-4.52,1.06-2.5,0-4.47-1-5.92-3-1.45-2-2.17-4.93-2.17-8.78,0-2.02.12-4.24.36-6.66.14-1.45.32-2.91.52-4.38-.3.12-.59.24-.9.35-.95.33-1.92.62-2.91.86-.99.24-1.93.41-2.83.52-.08,0-.3,0-.66.03-.35.02-.78.05-1.28.08s-1.03.06-1.59.09-1.09.05-1.59.05c-.29,0-.59,0-.91-.02-.31-.01-.55-.04-.72-.08.04.31.07.58.09.8.02.22.04.42.06.59.02.18.03.35.03.53v3.86c0,.5-.05,1.05-.16,1.66-.1.6-.25,1.21-.44,1.81-.19.6-.41,1.18-.67,1.73-.26.55-.56,1.05-.89,1.48-.48.65-1.08,1.3-1.8,1.95s-1.52,1.29-2.39,1.91c-.88.61-1.81,1.19-2.8,1.72-.99.53-1.98,1-2.97,1.41-.99.41-1.96.72-2.92.95-.96.23-1.85.34-2.69.34-1.58,0-2.89-.26-3.92-.77-1.03-.51-1.85-1.2-2.47-2.06-.62-.87-1.04-1.88-1.28-3.03-.24-1.16-.36-2.38-.36-3.67,0-1.02.1-2.02.3-3,.2-.98.46-1.95.8-2.91.33-.96.72-1.9,1.16-2.83.32-.68.65-1.36.99-2.03,0,0,0,0,0,0-.97.2-2.01.38-3.12.55-1.12.17-2.2.3-3.27.41-.94.08-1.75.16-2.42.23-.68.07-1.29.13-1.83.19-.54.05-1.05.09-1.53.12-.48.03-1,.05-1.56.05-.04.42-.12,1.11-.25,2.08s-.27,2.07-.42,3.31c-.16,1.24-.32,2.55-.5,3.94-.18,1.38-.35,2.71-.53,3.97-.18,1.26-.33,2.4-.47,3.41-.14,1.01-.25,1.77-.33,2.27-.19,1.14-.41,2.33-.66,3.56-.25,1.23-.53,2.26-.84,3.09-.4,1.06-.9,2.08-1.52,3.05-.62.97-1.32,1.9-2.11,2.8-1.62,1.81-3.57,2.72-5.84,2.72-.5,0-1.01-.09-1.52-.27-.51-.18-.97-.41-1.38-.69s-.73-.6-.98-.95c-.25-.36-.38-.71-.38-1.06,0-.33.07-.73.22-1.2.15-.47.35-.91.62-1.33.27-.42.58-.78.94-1.08.35-.3.75-.45,1.19-.45.12,0,.29.02.48.05.2.03.41.07.62.12.22.05.44.09.66.12s.41.05.58.05c.35-.25.66-.62.92-1.12.26-.5.49-1.06.69-1.69.2-.62.38-1.29.55-1.98.17-.7.31-1.38.44-2.05.27-1.4.52-2.73.73-4,.22-1.27.42-2.51.61-3.72.19-1.21.35-2.4.5-3.58.15-1.18.26-2.37.34-3.58.04-.29.09-.66.14-1.09.05-.44.1-.91.16-1.41.05-.5.09-1,.12-1.48.03-.49.05-.93.05-1.33,0-.15-.1-.32-.31-.53s-.44-.45-.69-.72c-.25-.27-.48-.56-.69-.88-.21-.31-.31-.64-.31-.97.05-.46.57-1.31,1.51-2.51-1.11.32-2.24.59-3.38.81-1.15.22-2.26.41-3.34.56-1.08.16-2.05.3-2.91.42-.58.08-1.19.16-1.81.22s-1.22.12-1.8.17c-.57.05-1.11.11-1.62.17-.51.06-.95.13-1.33.22-.42,1.75-.81,3.42-1.19,5-.38,1.58-.71,3.09-1,4.53-.08.38-.19.94-.31,1.69s-.25,1.53-.36,2.33c-.11.8-.21,1.56-.3,2.28-.08.72-.12,1.23-.12,1.55,0,.67.11,1.17.33,1.52s.45.65.7.91c.25.26.48.55.7.86s.33.78.33,1.41c0,.42-.15.81-.44,1.17-.29.36-.66.69-1.09.98-.44.29-.91.52-1.42.69-.51.17-.98.25-1.42.25-.75,0-1.43-.2-2.03-.59-.6-.4-1.12-.91-1.56-1.53s-.77-1.33-1-2.12c-.23-.79-.34-1.59-.34-2.41,0-1.38.14-2.85.42-4.44.28-1.58.6-3.21.95-4.88.15-.69.32-1.47.52-2.34.2-.88.39-1.72.56-2.55.18-.82.33-1.57.45-2.25.12-.68.19-1.17.19-1.48-.48.04-.93.09-1.36.14-.43.05-.88.08-1.36.08-.54,0-1.02-.1-1.42-.3-.41-.2-.75-.47-1.03-.81s-.5-.74-.64-1.19c-.15-.45-.22-.92-.22-1.42,0-.42.13-.8.39-1.14.26-.34.59-.64,1-.89s.85-.45,1.33-.59c.48-.15.94-.22,1.38-.22.38,0,.85-.03,1.42-.09.57-.06,1.1-.09,1.58-.09.1,0,.23-.2.39-.61s.32-.92.5-1.55c.18-.62.35-1.32.53-2.08.18-.76.34-1.49.5-2.2.16-.71.29-1.34.41-1.91.11-.56.2-.96.27-1.19.33-.98.64-2.03.91-3.16.27-1.12.61-2.17,1.03-3.12.42-.96.95-1.75,1.59-2.38.65-.62,1.51-.94,2.59-.94.5,0,.9.04,1.2.12.3.08.54.25.72.48.18.24.3.58.36,1.02s.09,1.01.09,1.72c0,.52-.06,1.1-.19,1.75-.12.65-.3,1.32-.53,2.03-.48,1.52-.9,2.95-1.27,4.3-.36,1.34-.67,2.53-.92,3.56s-.44,1.87-.56,2.52c-.12.65-.19,1.05-.19,1.22.83,0,1.65-.02,2.44-.06.79-.04,1.6-.09,2.44-.16.83-.06,1.7-.14,2.59-.23.9-.09,1.86-.2,2.91-.33,1.21-.15,2.24-.3,3.11-.45.86-.16,1.62-.3,2.28-.42.65-.12,1.24-.23,1.77-.31.05-.39.11-.8.18-1.28.19-1.19.36-2.27.53-3.25.17-.98.37-1.91.61-2.8.24-.89.54-1.75.89-2.61.35-.85.8-1.75,1.34-2.69.44-.75.97-1.51,1.61-2.28.63-.77,1.34-1.47,2.12-2.09s1.61-1.13,2.48-1.52c.88-.39,1.76-.58,2.66-.58,1.88,0,3.43.61,4.66,1.84,1.38,1.31,2.06,2.82,2.06,4.53,0,2.08-.8,4.31-2.41,6.69-1,1.54-2.12,2.31-3.34,2.31h-.56c.27-1.02.47-1.98.59-2.88.12-.9.19-1.72.19-2.47,0-.33-.02-.78-.06-1.33-.04-.55-.12-1.09-.25-1.61-.12-.52-.29-.97-.5-1.36-.21-.39-.47-.58-.78-.58-.21,0-.46.15-.75.44-.29.29-.59.66-.89,1.09-.3.44-.6.92-.89,1.44-.29.52-.55,1.02-.78,1.5-.27.58-.56,1.4-.88,2.45-.31,1.05-.6,2.18-.88,3.38-.27,1.2-.51,2.4-.72,3.59-.21,1.2-.35,2.26-.44,3.17v1.25c0,.12.15.22.44.3.29.07.68.13,1.17.17.49.04,1.05.07,1.67.08.62,0,1.26.02,1.91.02,1.08,0,2.12-.02,3.11-.06.99-.04,1.97-.11,2.95-.2.98-.09,1.97-.21,2.98-.36.55-.08,1.13-.17,1.71-.27.02-.03.04-.07.06-.1.58-1.04,1.16-2,1.73-2.88.57-.88,1.27-1.62,2.08-2.25s1.8-1.11,2.95-1.45,2.59-.52,4.3-.52c.71,0,1.32.07,1.84.22.52.15.99.35,1.41.62.42.27.8.61,1.14,1.02s.69.87,1.05,1.39c.27.4.54.76.8,1.09.26.33.56.62.91.86.34.24.77.42,1.27.55s1.12.19,1.88.19h2.48c.66,0,1.19,0,1.61-.02.42-.01.75-.03,1.02-.05.26-.02.49-.04.7-.06.81-.1,1.56-.21,2.25-.33.69-.11,1.36-.24,2.03-.39.67-.15,1.34-.32,2.03-.52.1-.03.21-.06.31-.09.27-1.54.55-3.06.85-4.57.48-2.39.95-4.57,1.41-6.55.38-1.62.78-3.03,1.2-4.22.43-1.19.9-2.16,1.41-2.92.51-.76,1.08-1.32,1.7-1.69.62-.36,1.34-.55,2.16-.55.58,0,1.06.11,1.42.34.36.23.66.53.88.89.22.36.37.79.45,1.27.08.48.12.97.12,1.47,0,.58-.14,1.41-.41,2.48-.27,1.07-.59,2.2-.95,3.39-.37,1.19-.72,2.34-1.08,3.45-.35,1.11-.62,2.02-.78,2.7-.29,1.29-.59,2.8-.91,4.52s-.6,3.49-.86,5.33c-.26,1.83-.47,3.65-.64,5.45-.17,1.8-.25,3.45-.25,4.95,0,1.15.08,2.1.25,2.86.17.76.38,1.36.62,1.81.25.45.52.76.81.94.29.18.56.27.81.27.92,0,1.99-.37,3.23-1.09,1.24-.73,2.55-1.69,3.94-2.89,1.38-1.2,2.8-2.58,4.25-4.16,1.45-1.57,2.83-3.2,4.14-4.89,0,0,0,0,0-.01.05-.62.12-1.25.19-1.91.11-.97.24-1.91.38-2.81.13-.91.28-1.62.42-2.14.31-1.02,1.03-1.99,2.16-2.91,1.08-.88,2.29-1.31,3.62-1.31s2.03.81,2.03,2.44c0,.77-.07,1.59-.2,2.45-.14.86-.29,1.71-.45,2.55-.27,1.52-.46,2.89-.56,4.11-.1,1.22-.16,2.3-.16,3.23,0,1.06.06,2.09.19,3.09s.31,1.89.55,2.67c.24.78.54,1.41.91,1.89.36.48.8.72,1.3.72.62,0,1.27-.06,1.94-.17.67-.12,1.47-.42,2.41-.92,1.79-.98,3.7-2.3,5.72-3.97.71-.58,1.52-1.28,2.42-2.08.91-.8,1.81-1.62,2.7-2.47.9-.84,1.74-1.67,2.53-2.48.16-.17.32-.33.47-.49.25-.52.51-1.03.78-1.53.67-1.22,1.31-2.22,1.94-3.02.73-.94,1.61-1.84,2.66-2.72,1.04-.88,2.2-1.65,3.47-2.33,1.27-.68,2.63-1.22,4.08-1.64,1.45-.42,2.94-.62,4.48-.62,1.23,0,2.44.29,3.62.88,1.19.58,2.24,1.36,3.17,2.33.93.97,1.67,2.09,2.23,3.38.56,1.28.84,2.63.84,4.05,0,.67-.03,1.28-.09,1.83Zm19.77-57.47c-.41,1.05-.94,2.05-1.61,2.98-.67.94-1.44,1.8-2.31,2.59-.88.79-1.78,1.47-2.72,2.03s-1.88,1-2.81,1.33c-.94.32-1.81.48-2.62.48-1.27,0-2.2-.31-2.78-.92-.58-.61-.88-1.44-.88-2.48,0-.5.08-.97.23-1.42.16-.45.38-.84.67-1.19.29-.34.65-.61,1.08-.81.43-.2.91-.3,1.45-.3h.56c.42,0,.88-.06,1.41-.19.52-.12,1.12-.47,1.81-1.03.6-.5,1.05-1.1,1.33-1.8.28-.7.42-1.31.42-1.83,0-.46-.12-.89-.34-1.3-.23-.41-.53-.81-.91-1.2-.38-.4-.81-.79-1.3-1.17-.49-.39-1.01-.78-1.55-1.17-.71-.54-1.42-1.11-2.14-1.7s-1.37-1.23-1.95-1.91c-.58-.68-1.05-1.4-1.41-2.16-.35-.76-.53-1.58-.53-2.45s.16-1.79.47-2.75c.31-.96.73-1.91,1.27-2.84s1.14-1.82,1.83-2.66c.69-.83,1.4-1.57,2.14-2.22.74-.65,1.48-1.16,2.23-1.53s1.45-.56,2.09-.56c1.06,0,1.87.26,2.42.78.55.52.83,1.35.83,2.5,0,.54-.14,1.1-.42,1.67-.28.57-.64,1.14-1.06,1.69-.43.55-.91,1.09-1.44,1.61-.53.52-1.05,1-1.55,1.44-.44.4-.85.72-1.23.97-.39.25-.75.52-1.08.81.21.38.48.76.81,1.14.33.39.7.76,1.09,1.12.4.36.8.71,1.2,1.05.41.33.79.65,1.14.94.77.62,1.55,1.28,2.34,1.97.79.69,1.52,1.41,2.17,2.17.66.76,1.19,1.56,1.61,2.41.42.84.62,1.75.62,2.7,0,1.08-.2,2.15-.61,3.2Z"/>
      <path class="cls-1" d="m277.41,445.45c.44-.44.93-.97,1.48-1.61.55-.64,1.08-1.3,1.58-1.98s.92-1.38,1.27-2.06.52-1.32.52-1.91c0-.92-.14-1.56-.42-1.94s-.6-.56-.95-.56c-.31,0-.68.19-1.09.56-.42.38-.85.88-1.3,1.52-.45.64-.9,1.38-1.34,2.22-.45.84-.86,1.73-1.25,2.67-.39.94-.71,1.9-.97,2.89-.26.99-.44,1.94-.55,2.86.6-.5,1.15-.95,1.64-1.36.49-.41.95-.84,1.39-1.3Z"/>
    </g>
  </g>
</svg>