<?xml version="1.0" encoding="UTF-8"?>
<svg id="_레이어_2" data-name="레이어 2" xmlns="http://www.w3.org/2000/svg" viewBox="0 0 2560 1440">
  <defs>
    <style>
      .cls-1 {
        fill: #fff;
      }
    </style>
  </defs>
  <g id="Seungill_s_portfolio" data-name="Seungill&amp;apos;s portfolio">
    <g>
      <path class="cls-1" d="m793.41,708.5c.82-.82,1.75-1.83,2.78-3.02,1.03-1.19,2.02-2.43,2.96-3.72s1.73-2.58,2.37-3.87.97-2.48.97-3.57c0-1.72-.26-2.93-.79-3.63s-1.12-1.05-1.79-1.05c-.59,0-1.27.35-2.05,1.05-.78.7-1.59,1.65-2.43,2.84-.84,1.19-1.68,2.58-2.52,4.16-.84,1.58-1.62,3.25-2.34,5.01-.72,1.76-1.33,3.56-1.82,5.42-.49,1.86-.83,3.64-1.03,5.36,1.13-.94,2.16-1.79,3.08-2.55.92-.76,1.79-1.57,2.61-2.43Z"/>
      <path class="cls-1" d="m1676.77,703.64c-.12-.35-.26-.63-.44-.85-.18-.21-.36-.42-.56-.62-.39-.43-.82-.95-1.29-1.55-.47-.6-.91-1.19-1.32-1.76-.41-.57-.78-1.05-1.11-1.46-.33-.41-.58-.62-.73-.62-1.02,0-2.08.35-3.19,1.05s-2.22,1.66-3.31,2.87c-1.09,1.21-2.16,2.64-3.19,4.28-1.04,1.64-2,3.42-2.9,5.33-.74,1.6-1.47,3.34-2.2,5.21-.72,1.88-1.38,3.79-1.96,5.74-.59,1.95-1.05,3.88-1.41,5.77-.35,1.9-.53,3.66-.53,5.3,0,1.02.42,1.9,1.26,2.67.84.76,2.06,1.14,3.66,1.14.7,0,1.62-.23,2.75-.7,1.13-.47,2.3-1.04,3.52-1.73,1.21-.68,2.36-1.43,3.46-2.23,1.09-.8,1.95-1.53,2.58-2.2,1.76-1.84,3.12-3.52,4.1-5.07.98-1.54,1.7-3.13,2.17-4.78s.75-3.43.85-5.36c.1-1.93.15-4.25.15-6.94,0-.9-.03-1.62-.09-2.17-.06-.55-.15-1-.26-1.35Z"/>
      <path class="cls-1" d="m1459.09,696.9c-1.13,0-2.32.34-3.57,1.03-1.25.68-2.46,1.54-3.63,2.58-1.17,1.04-2.28,2.14-3.31,3.31-1.04,1.17-1.9,2.23-2.61,3.16-.7.98-1.49,2.26-2.34,3.84-.86,1.58-1.66,3.26-2.4,5.04-.74,1.78-1.37,3.56-1.88,5.36-.51,1.8-.76,3.4-.76,4.8,0,.7.13,1.41.38,2.11.25.7.61,1.34,1.05,1.9.45.57.98,1.04,1.58,1.41.61.37,1.28.56,2.02.56,1.09,0,2.5-.31,4.22-.94,1.72-.62,3.54-1.48,5.48-2.58,1.93-1.09,3.87-2.4,5.8-3.93s3.69-3.19,5.27-5.01,2.86-3.73,3.84-5.74c.98-2.01,1.46-4.07,1.46-6.18,0-3.32-.91-5.94-2.72-7.85-1.82-1.91-4.44-2.87-7.88-2.87Z"/>
      <path class="cls-1" d="m1049.58,693.21c-.43-.31-.94-.47-1.52-.47-.66,0-1.72.57-3.16,1.7-1.45,1.13-3.06,2.68-4.83,4.63-1.78,1.95-3.61,4.23-5.51,6.83-1.9,2.6-3.62,5.36-5.19,8.29-.43.78-.84,1.71-1.23,2.78-.39,1.07-.74,2.19-1.05,3.34-.31,1.15-.58,2.31-.79,3.49-.22,1.17-.38,2.25-.5,3.22,2.15-.47,4.45-1.11,6.91-1.93s4.65-1.78,6.56-2.87c1.09-.62,2.17-1.37,3.22-2.23,1.05-.86,2.02-1.78,2.9-2.75.88-.98,1.62-1.96,2.23-2.96.6-1,1.01-1.96,1.2-2.9.16-.94.32-2.04.5-3.31.18-1.27.33-2.65.47-4.13.14-1.48.24-3.04.32-4.66.08-1.62.12-3.27.12-4.95,0-.43-.22-.8-.64-1.11Z"/>
      <path class="cls-1" d="m0,0v1440h2560V0H0Zm1768,660.84c.62-1.35,1.44-2.6,2.43-3.75,1-1.15,2.09-2.11,3.28-2.87,1.19-.76,2.33-1.14,3.43-1.14,1.37,0,2.58.09,3.63.26s1.94.48,2.67.91c.72.43,1.28,1.04,1.67,1.82.39.78.59,1.76.59,2.93,0,1.29-.2,2.51-.59,3.66-.39,1.15-.96,2.24-1.7,3.25-1.49,2.07-3.77,3.11-6.86,3.11-1.09,0-2.21-.1-3.34-.29-1.13-.19-2.15-.47-3.05-.82-.9-.35-1.64-.8-2.23-1.35-.59-.55-.88-1.17-.88-1.88,0-1.21.31-2.49.94-3.84Zm-672.98,7.82c.18-.43.37-.87.59-1.32.21-.45.41-.95.59-1.49.18-.55.26-1.23.26-2.05,0-1.02.16-1.98.47-2.9.31-.92.76-1.72,1.35-2.4.59-.68,1.29-1.23,2.11-1.64s1.76-.62,2.81-.62c.51,0,1.22.03,2.14.09.92.06,1.83.24,2.72.56.9.31,1.68.82,2.34,1.52.66.7,1,1.7,1,2.99,0,.66-.15,1.46-.44,2.37-.29.92-.67,1.88-1.14,2.87s-1,1.99-1.58,2.99-1.19,1.89-1.82,2.67c-.63.78-1.21,1.42-1.76,1.9-.55.49-1.04.73-1.46.73-.59,0-1.35-.1-2.29-.29-.94-.19-1.87-.5-2.78-.91-.92-.41-1.71-.91-2.37-1.49-.66-.59-1-1.27-1-2.05,0-.59.09-1.09.26-1.52Zm-331.46,4.92c-.14.78-.34,1.59-.62,2.43-.27.84-.58,1.64-.91,2.4-.33.76-.71,1.38-1.14,1.85h.06c-1.25,1.48-4.2,2.23-8.85,2.23,0-1.68-.07-3.13-.21-4.37-.14-1.23-.36-2.22-.67-2.96-.27-.62-.76-1.15-1.46-1.58-.7-.43-1.49-.78-2.37-1.05-.88-.27-1.77-.48-2.67-.62-.9-.14-1.68-.21-2.34-.21-1.68,0-3.32.04-4.92.12-1.6.08-3.17.23-4.72.47-1.54.23-3.11.57-4.69,1-1.58.43-3.19.98-4.83,1.64-1.17.47-2.41,1.05-3.72,1.76-1.31.7-2.53,1.49-3.66,2.37-1.13.88-2.1,1.84-2.9,2.87-.8,1.04-1.3,2.14-1.49,3.31l.06-.12c0,.94.31,1.98.94,3.13.62,1.15,1.47,2.29,2.55,3.4,1.07,1.11,2.31,2.13,3.72,3.05,1.41.92,2.89,1.59,4.45,2.02.12.04.45.16,1,.35.55.2,1.21.42,1.99.67.78.25,1.61.54,2.49.85.88.31,1.7.6,2.46.85.76.25,1.41.47,1.93.64s.83.28.91.32c9.06,2.31,15.78,5.08,20.16,8.32,4.37,3.24,6.56,7.23,6.56,11.95,0,1.52-.33,3.04-1,4.54-.66,1.5-1.5,2.94-2.52,4.31-1.02,1.37-2.12,2.63-3.31,3.78-1.19,1.15-2.31,2.12-3.37,2.9l.06-.06c-1.13.9-2.41,1.82-3.84,2.75-1.43.94-2.96,1.86-4.6,2.75-1.64.9-3.34,1.74-5.1,2.52s-3.56,1.46-5.39,2.05c-1.72.55-3.53,1.06-5.42,1.55-1.9.49-3.78.91-5.65,1.26s-3.68.62-5.42.82c-1.74.2-3.31.29-4.72.29-.74,0-1.65-.09-2.72-.26-1.07-.18-2.21-.42-3.4-.73-1.19-.31-2.38-.68-3.57-1.11-1.19-.43-2.26-.92-3.19-1.46-.94-.55-1.7-1.13-2.29-1.76s-.88-1.29-.88-1.99c0-.62.12-1.39.35-2.29.23-.9.58-1.77,1.03-2.61.45-.84.98-1.56,1.58-2.17.6-.61,1.26-.91,1.96-.91.98,0,1.89.12,2.75.35.86.23,1.83.5,2.9.79,1.07.29,2.32.57,3.75.82,1.43.25,3.19.38,5.3.38s4.31-.22,6.59-.67c2.29-.45,4.54-1.05,6.77-1.82s4.35-1.63,6.39-2.61c2.03-.98,3.87-1.99,5.51-3.05.7-.47,1.47-1,2.31-1.61.84-.61,1.62-1.27,2.34-1.99.72-.72,1.33-1.47,1.82-2.26.49-.78.73-1.58.73-2.4,0-.94-.7-1.84-2.11-2.7v.06c-2.07-1.25-4.12-2.21-6.15-2.87-2.03-.66-3.81-1.21-5.33-1.64-4.3-1.09-9.53-2.83-15.7-5.21h.06c-2.58-1.02-5.08-2.32-7.5-3.93-2.42-1.6-4.51-3.28-6.27-5.04-3.91-4.34-5.86-9.34-5.86-15,0-2.23.62-4.39,1.88-6.5,1.25-2.11,2.95-4.09,5.1-5.95,2.15-1.85,4.64-3.56,7.47-5.13,2.83-1.56,5.85-2.9,9.05-4.01,3.2-1.11,6.47-1.98,9.81-2.61,3.34-.62,6.57-.94,9.7-.94.98,0,2.2.07,3.66.21,1.46.14,2.97.33,4.51.59,1.54.25,3.02.57,4.42.94,1.41.37,2.52.79,3.34,1.26h-.06c2.27,1.21,4.05,2.66,5.36,4.34,1.31,1.68,1.96,3.32,1.96,4.92,0,.55-.07,1.21-.21,1.99Zm299.21,19.25c-.08.96-.17,1.97-.26,3.05-.1,1.07-.19,2.18-.26,3.31-.08,1.13-.12,2.23-.12,3.28,0,2.03-.08,4.5-.23,7.41-.16,2.91-.39,6.3-.7,10.17-.2,2.38-.47,5.19-.82,8.41s-.79,6.5-1.32,9.84-1.12,6.59-1.79,9.76c-.66,3.16-1.41,5.92-2.23,8.26-.82,2.3-1.88,4.49-3.16,6.56-1.29,2.07-2.82,3.9-4.6,5.48-1.78,1.58-3.8,2.83-6.06,3.75-2.27.92-4.77,1.38-7.5,1.38-2.38,0-4.75-.32-7.09-.97s-4.57-1.49-6.68-2.55-4.06-2.26-5.86-3.6c-1.8-1.35-3.36-2.75-4.69-4.22s-2.36-2.92-3.11-4.37c-.74-1.45-1.11-2.77-1.11-3.98,0-2.31,1.13-3.46,3.4-3.46.55,0,1.04.12,1.49.35.45.23.85.51,1.2.82.35.31.67.64.97,1s.56.64.79.88c1.72,1.6,3.41,2.93,5.07,3.98,1.66,1.05,3.33,1.9,5.01,2.55,1.68.64,3.39,1.1,5.13,1.38,1.74.27,3.52.41,5.36.41,2.27,0,4.12-.59,5.57-1.76,1.44-1.17,2.61-2.7,3.49-4.57s1.56-3.96,2.05-6.27c.49-2.31.91-4.57,1.26-6.8v.06c.43-2.81.8-5.53,1.11-8.14.31-2.62.57-5.16.76-7.62-1.48,1.6-3.28,3.09-5.39,4.45-2.11,1.37-4.33,2.55-6.65,3.54-2.32,1-4.66,1.78-7,2.34-2.34.57-4.51.85-6.5.85-.74,0-1.67-.1-2.78-.29-1.11-.2-2.17-.52-3.16-.97-1-.45-1.86-1.05-2.58-1.82-.72-.76-1.08-1.71-1.08-2.84,0-2.23.37-4.79,1.11-7.71.03-.13.07-.25.1-.38-1.23,1.21-2.47,2.4-3.74,3.54-1.76,1.58-3.52,2.96-5.27,4.13-1.37.94-2.69,1.81-3.96,2.61-1.27.8-2.58,1.51-3.93,2.14-1.35.62-2.77,1.11-4.28,1.46-1.5.35-3.15.53-4.95.53-2.93,0-5.36-.59-7.29-1.76s-3.51-2.73-4.72-4.69c-1.21-1.95-2.14-4.19-2.78-6.71s-1.14-5.15-1.49-7.88c-.51-3.71-1.07-6.65-1.7-8.82-.63-2.17-1.39-3.25-2.29-3.25-.78,0-1.54.19-2.29.56-.74.37-1.67,1.16-2.78,2.37-1.11,1.21-2.52,2.98-4.22,5.3-1.7,2.32-3.92,5.42-6.65,9.29-.94,1.33-2.08,2.81-3.43,4.45s-2.76,3.21-4.25,4.72c-1.48,1.5-2.96,2.83-4.42,3.98-1.46,1.15-2.82,1.94-4.07,2.37-4.92-1.09-7.38-5.8-7.38-14.12,0-2.11.23-5.21.7-9.32.04-.29.08-.6.12-.9-1.87,2.3-3.79,4.54-5.8,6.64-2.46,2.58-4.93,4.83-7.41,6.77-2.48,1.93-4.93,3.47-7.35,4.6-2.42,1.13-4.73,1.7-6.91,1.7s-4.27-.34-6.12-1.03c-1.86-.68-3.47-1.79-4.83-3.31-1.37-1.52-2.43-3.48-3.19-5.86-.76-2.38-1.14-5.27-1.14-8.67-.63,1.02-1.38,2.16-2.26,3.43-.88,1.27-1.82,2.55-2.81,3.84s-2.03,2.54-3.11,3.75c-1.07,1.21-2.14,2.27-3.19,3.16-.94.82-2.1,1.81-3.49,2.96-1.39,1.15-2.97,2.27-4.75,3.34-1.78,1.08-3.74,2.01-5.89,2.81-2.15.8-4.45,1.26-6.91,1.38-3.2,0-5.73-.56-7.59-1.67-1.86-1.11-3.25-2.54-4.19-4.28-.94-1.74-1.53-3.66-1.79-5.77-.25-2.11-.38-4.16-.38-6.15,0-.2.03-.74.09-1.64.06-.9.16-2.01.29-3.34.12-1.18.29-2.49.5-3.93-2.25,2.79-4.72,5.58-7.42,8.35-2.75,2.83-5.7,5.57-8.85,8.2-3.15,2.64-6.33,4.97-9.55,7-3.22,2.03-6.44,3.66-9.64,4.89-3.2,1.23-6.25,1.85-9.14,1.85-3.67,0-6.88-.51-9.61-1.52-2.73-1.02-5-2.49-6.8-4.42-1.8-1.93-3.15-4.3-4.04-7.09-.9-2.79-1.35-5.97-1.35-9.52,0-2.7.21-5.55.62-8.55.41-3.01,1.16-6.06,2.26-9.17,1.09-3.11,2.57-6.23,4.42-9.38,1.85-3.14,4.23-6.18,7.12-9.11,2.23-2.27,4.63-3.98,7.21-5.16s5.04-1.76,7.38-1.76c.43,0,.98.09,1.64.26.66.18,1.33.42,1.99.73.66.31,1.31.68,1.93,1.11.62.43,1.13.9,1.52,1.41,1.25,1.6,2.19,3.12,2.81,4.54.62,1.43.94,3.04.94,4.83,0,2.81-.39,5.35-1.17,7.62-.78,2.27-1.85,4.39-3.19,6.36-1.35,1.97-2.94,3.88-4.78,5.71s-3.81,3.75-5.92,5.74c-1.29,1.21-2.89,2.53-4.8,3.96-1.91,1.43-3.97,2.98-6.15,4.66.31,1.21.7,2.26,1.17,3.13s1.05,1.61,1.76,2.2,1.55,1.03,2.55,1.32,2.18.44,3.54.44c1.84,0,3.8-.31,5.89-.94,2.09-.62,4.19-1.43,6.3-2.4,1.84-.86,3.65-1.94,5.45-3.25,1.8-1.31,3.61-2.67,5.45-4.07,1.13-.86,2.59-2.1,4.37-3.72,1.78-1.62,3.58-3.31,5.42-5.07,1.25-1.17,2.5-2.31,3.75-3.43,1.25-1.11,2.58-2.35,3.98-3.72l3.11-3.05c.99-.8,1.89-1.42,2.72-1.87.37-1.15.77-2.28,1.21-3.35.35-.82.69-1.57,1.03-2.26.33-.68.71-1.27,1.14-1.76.43-.49.96-.89,1.58-1.2.62-.31,1.41-.49,2.34-.53,1.21,0,2.22.21,3.02.62.8.41,1.44.93,1.93,1.55.49.63.83,1.33,1.03,2.11.19.78.29,1.54.29,2.29,0,.59-.26,1.62-.79,3.11-.53,1.48-1.1,3.32-1.73,5.51-.63,2.19-1.2,4.69-1.73,7.5s-.79,5.84-.79,9.08c0,1.64.27,2.94.82,3.9.55.96,1.27,1.44,2.17,1.44,1.25,0,2.47-.2,3.66-.59,1.19-.39,2.35-.9,3.49-1.52,1.13-.62,2.24-1.34,3.31-2.14,1.07-.8,2.1-1.61,3.08-2.43,1.17-.98,2.45-2.23,3.84-3.75,1.39-1.52,2.74-3.13,4.07-4.83,1.33-1.7,2.56-3.37,3.69-5.01,1.13-1.64,2.03-3.07,2.7-4.28.35-.62.76-1.45,1.23-2.49.47-1.03.92-2.12,1.35-3.25.43-1.13.82-2.22,1.17-3.25.35-1.03.6-1.86.76-2.49.12-.55.22-1.03.32-1.44.1-.41.19-.83.29-1.26.1-.43.22-.88.38-1.35.16-.47.35-1,.59-1.58.16-.39.45-.81.88-1.26.43-.45.93-.86,1.49-1.23.57-.37,1.17-.68,1.82-.94.64-.25,1.26-.38,1.85-.38,1.76,0,3.11.5,4.04,1.49s1.44,2.22,1.52,3.66c-.16.78-.42,2.08-.79,3.9-.37,1.82-.75,3.85-1.14,6.09-.39,2.25-.72,4.57-1,6.97-.27,2.4-.41,4.6-.41,6.59,0,3.44.48,6.14,1.44,8.12.96,1.97,2.31,2.96,4.07,2.96,1.33,0,2.72-.36,4.19-1.08,1.46-.72,2.98-1.69,4.54-2.9,1.56-1.21,3.13-2.61,4.72-4.19s3.14-3.25,4.69-5.01c1.54-1.76,3.03-3.53,4.45-5.33,1.43-1.8,2.76-3.5,4.01-5.1,1.51-1.97,2.91-3.65,4.2-5.05.29-.69.58-1.39.9-2.04.47-.94,1-1.68,1.58-2.23.59-.55,1.18-.96,1.79-1.23.6-.27,1.24-.45,1.9-.53.66-.08,1.33-.12,1.99-.12.59,0,1.15.15,1.7.44.55.29,1.03.71,1.46,1.26.43.55.77,1.21,1.03,1.99.25.78.38,1.68.38,2.7,0,.9-.08,1.76-.23,2.58-.16.82-.37,1.67-.64,2.55-.27.88-.56,1.81-.85,2.78-.29.98-.6,2.09-.91,3.34-.2.82-.48,1.88-.85,3.16-.37,1.29-.74,2.63-1.11,4.01-.37,1.39-.71,2.74-1.03,4.07-.31,1.33-.51,2.44-.59,3.34.7-.82,1.51-1.85,2.43-3.08.92-1.23,1.88-2.56,2.9-3.98,1.02-1.43,2.05-2.88,3.11-4.37,1.05-1.48,2.11-2.89,3.16-4.22,1.37-1.72,2.71-3.34,4.04-4.86,1.33-1.52,2.72-2.84,4.19-3.96s3.06-1.99,4.78-2.64c1.72-.64,3.65-.97,5.8-.97,2.54,0,4.61.52,6.21,1.55,1.6,1.04,2.88,2.47,3.84,4.31.96,1.84,1.67,4.01,2.14,6.53s.84,5.26,1.11,8.23c.16,1.52.36,3.09.62,4.69.25,1.6.63,3.06,1.14,4.37.51,1.31,1.17,2.38,1.99,3.22.82.84,1.84,1.26,3.05,1.26,1.8,0,3.76-.48,5.89-1.44,2.13-.96,4.37-2.28,6.71-3.96,2.34-1.68,4.75-3.63,7.21-5.86s4.92-4.61,7.38-7.15c.78-.82,1.53-1.63,2.26-2.43.72-.8,1.42-1.52,2.08-2.17.61-.6,1.21-1.07,1.79-1.45.3-.44.6-.87.9-1.27,1.88-2.58,3.93-4.92,6.15-7.03s4.46-3.93,6.71-5.45c2.25-1.52,4.41-2.7,6.5-3.52,2.09-.82,3.94-1.23,5.54-1.23,1.29,0,2.7.13,4.25.38,1.54.25,2.98.67,4.31,1.26,1.33.59,2.44,1.38,3.34,2.37.9,1,1.35,2.24,1.35,3.72,0,.74-.04,1.59-.12,2.55Zm168.69,31.2c-.39.9-.87,1.85-1.44,2.84-.57,1-1.17,1.97-1.82,2.93-.64.96-1.22,1.75-1.73,2.37-1.56,1.91-3.31,3.76-5.24,5.54-1.93,1.78-3.97,3.34-6.09,4.69-2.13,1.35-4.32,2.42-6.56,3.22-2.25.8-4.46,1.2-6.65,1.2-3.44,0-6.39-.64-8.85-1.9s-4.49-3.13-6.09-5.6c-1.6-2.46-2.78-5.49-3.54-9.08-.52-2.46-.85-5.19-1.02-8.13-1.46,1.78-2.98,3.56-4.61,5.34-2.13,2.32-4.39,4.57-6.77,6.74-2.38,2.17-4.79,4.08-7.21,5.74-2.42,1.66-4.81,3-7.18,4.01-2.36,1.02-4.64,1.52-6.83,1.52-3.2,0-5.82-.56-7.85-1.67-2.03-1.11-3.62-2.59-4.78-4.42-1.15-1.84-1.93-3.93-2.34-6.3-.41-2.36-.62-4.79-.62-7.29,0-1.41.12-3.49.35-6.24,0,0,0,0,0-.01-.72.86-1.45,1.72-2.2,2.59-1.27,1.46-2.45,2.78-3.54,3.96-3.59,3.87-6.98,7.23-10.17,10.08-3.18,2.85-6.21,5.21-9.08,7.09s-5.6,3.26-8.17,4.16c-2.58.9-5.06,1.35-7.44,1.35s-4.27-.44-6.01-1.32c-1.74-.88-3.19-2.08-4.37-3.6s-2.05-3.31-2.64-5.36-.88-4.27-.88-6.65c0-1.88.06-3.93.18-6.15s.26-4.44.44-6.65c.18-2.21.38-4.29.62-6.24.23-1.95.45-3.57.64-4.86.12-.59.21-1.25.26-1.99.06-.74.11-1.49.15-2.26.04-.76.07-1.48.09-2.17.02-.68.03-1.26.03-1.73,0-.51.21-1.3.62-2.37.41-1.07,1-2.17,1.76-3.28s1.69-2.09,2.78-2.93c1.09-.84,2.32-1.26,3.69-1.26,2.23,0,3.97.45,5.24,1.35,1.27.9,1.9,2.54,1.9,4.92,0,.47-.13,1.26-.38,2.37-.25,1.11-.58,2.45-.97,4.01-.39,1.56-.81,3.29-1.26,5.19-.45,1.9-.87,3.88-1.26,5.95-.39,2.07-.71,4.17-.97,6.3-.25,2.13-.38,4.19-.38,6.18,0,1.37.08,2.64.23,3.81.16,1.17.37,2.18.64,3.02.27.84.6,1.49.97,1.96.37.47.75.7,1.14.7,1.56,0,3.16-.26,4.8-.79s3.47-1.47,5.48-2.84c2.01-1.37,4.31-3.25,6.88-5.65s5.59-5.48,9.02-9.23c1.21-1.29,2.31-2.48,3.31-3.57,1-1.09,1.99-2.19,2.99-3.28,1-1.09,2.03-2.25,3.11-3.46,1.07-1.21,2.27-2.6,3.6-4.16.31-.43.76-.75,1.35-.97.03,0,.05-.01.08-.02.15-.94.31-1.88.47-2.85.68-4,1.48-8,2.4-11.98.92-3.98,1.95-7.81,3.11-11.48,1.15-3.67,2.41-6.9,3.78-9.7,1.37-2.79,2.84-5.03,4.42-6.71,1.58-1.68,3.27-2.52,5.07-2.52,1.37,0,2.39.51,3.08,1.52.68,1.02,1.03,2.64,1.03,4.86-.63,1.99-1.17,3.74-1.64,5.24-.47,1.5-.99,3.15-1.55,4.92-.57,1.78-1.09,3.46-1.58,5.04-.49,1.58-.92,2.96-1.29,4.13-.37,1.17-.6,1.9-.67,2.17-1.02,3.48-1.92,6.98-2.72,10.52-.8,3.54-1.48,7.01-2.05,10.43-.57,3.42-1,6.75-1.29,9.99-.29,3.24-.44,6.33-.44,9.26,0,1.45.16,2.71.47,3.78.31,1.08.72,1.94,1.23,2.61.51.67,1.1,1.16,1.79,1.49.68.33,1.4.5,2.14.5,1.29,0,2.75-.35,4.39-1.05s3.36-1.67,5.16-2.9c1.8-1.23,3.64-2.65,5.54-4.25,1.89-1.6,3.77-3.31,5.62-5.13,1.85-1.82,3.65-3.68,5.39-5.6,1.39-1.53,2.67-3.01,3.9-4.47.02-.24.03-.47.05-.72.27-3.3.64-6.71,1.11-10.22s1.03-7.06,1.7-10.63c.66-3.57,1.39-7.01,2.17-10.31.78-3.3,1.61-6.4,2.49-9.29.88-2.89,1.78-5.4,2.7-7.53.92-2.13,1.85-3.81,2.78-5.04s1.85-1.85,2.75-1.85c.78,0,1.49.16,2.14.47.64.31,1.22.7,1.73,1.17.51.47.96,1.01,1.35,1.61.39.61.72,1.2,1,1.79-.16,1.72-.47,3.89-.94,6.5-.47,2.62-1.03,5.4-1.67,8.35-.64,2.95-1.31,5.94-1.99,8.96-.68,3.03-1.32,5.83-1.9,8.41-.43,1.91-.8,3.93-1.11,6.04-.31,2.11-.58,4.22-.79,6.33-.22,2.11-.37,4.19-.47,6.24-.1,2.05-.15,3.99-.15,5.83,0,6.02.68,10.63,2.05,13.83,1.37,3.2,3.65,4.8,6.86,4.8,1.99,0,3.92-.34,5.77-1.03,1.85-.68,3.63-1.56,5.33-2.64,1.7-1.07,3.3-2.29,4.8-3.66,1.5-1.37,2.86-2.71,4.07-4.04.9-.98,1.83-1.88,2.78-2.72.96-.84,1.77-1.26,2.43-1.26,1.09,0,1.76.22,1.99.64.23.43.35,1.19.35,2.29,0,.55-.2,1.27-.59,2.17Zm10.96-54.9c-.39.86-.67,1.52-.85,1.99s-.34.97-.5,1.49c-.16.53-.35,1.2-.59,2.02s-.61,2.03-1.11,3.63c-.39,1.33-.7,2.44-.94,3.34-.23.9-.41,1.75-.53,2.55-.12.8-.2,1.63-.23,2.49-.04.86-.06,1.93-.06,3.22,0,1.8-.06,3.43-.18,4.89s-.39,2.72-.82,3.75c-.43,1.04-1.06,1.84-1.9,2.4-.84.57-1.96.85-3.37.85-1.05,0-1.99-.29-2.81-.88s-1.5-1.33-2.05-2.23c-.55-.9-.96-1.88-1.23-2.93-.27-1.05-.41-2.03-.41-2.93,0-.35,0-.76.03-1.23.02-.47.08-1.12.18-1.96.1-.84.24-1.92.44-3.25.19-1.33.47-3.01.82-5.04.04-.35.09-.69.15-1.03.06-.33.13-.65.21-.97.19-1.6.6-3.46,1.2-5.57.6-2.11,1.38-4.43,2.31-6.97,1.05-2.81,2.26-4.95,3.6-6.42s2.76-2.2,4.25-2.2c1.84,0,3.26.59,4.28,1.76,1.02,1.17,1.52,2.58,1.52,4.22,0,1.13-.47,2.79-1.41,4.98Zm48.19,67.88c-.76,1.97-1.77,3.84-3.02,5.6-1.25,1.76-2.7,3.38-4.34,4.86-1.64,1.48-3.34,2.75-5.1,3.81s-3.52,1.88-5.27,2.49c-1.76.61-3.4.91-4.92.91-2.38,0-4.12-.58-5.21-1.73-1.09-1.15-1.64-2.71-1.64-4.66,0-.94.15-1.83.44-2.67.29-.84.71-1.58,1.26-2.23.55-.64,1.22-1.15,2.02-1.52.8-.37,1.71-.56,2.72-.56h1.05c.78,0,1.66-.12,2.64-.35.98-.23,2.11-.88,3.4-1.93,1.13-.94,1.96-2.06,2.49-3.37.53-1.31.79-2.45.79-3.43,0-.86-.22-1.67-.64-2.43-.43-.76-1-1.51-1.7-2.26-.7-.74-1.51-1.47-2.43-2.2-.92-.72-1.89-1.46-2.9-2.2-1.33-1.02-2.67-2.08-4.01-3.19s-2.57-2.3-3.66-3.57c-1.09-1.27-1.97-2.62-2.64-4.04-.66-1.43-1-2.96-1-4.6s.29-3.36.88-5.16c.59-1.8,1.38-3.57,2.37-5.33s2.14-3.42,3.43-4.98c1.29-1.56,2.63-2.95,4.01-4.16,1.39-1.21,2.78-2.17,4.19-2.87s2.71-1.05,3.93-1.05c1.99,0,3.51.49,4.54,1.46,1.03.98,1.55,2.54,1.55,4.69,0,1.02-.26,2.06-.79,3.13-.53,1.07-1.19,2.13-1.99,3.16-.8,1.04-1.7,2.04-2.7,3.02-1,.98-1.96,1.88-2.9,2.7-.82.74-1.59,1.35-2.31,1.82-.72.47-1.4.98-2.02,1.52.39.7.9,1.42,1.52,2.14.62.72,1.31,1.43,2.05,2.11.74.68,1.49,1.34,2.26,1.96.76.63,1.47,1.21,2.14,1.76,1.44,1.17,2.91,2.4,4.39,3.69,1.48,1.29,2.84,2.65,4.07,4.07,1.23,1.43,2.24,2.93,3.02,4.51.78,1.58,1.17,3.27,1.17,5.07,0,2.03-.38,4.03-1.14,6.01Zm191.46-27.25c-.12,1.04-.31,2.04-.59,3.02-.27.98-.61,1.95-1,2.93-.39.98-.86,2.05-1.41,3.22-.67,1.45-1.72,3.06-3.16,4.83-1.45,1.78-3.14,3.57-5.1,5.36-1.95,1.8-4.09,3.54-6.42,5.24-2.32,1.7-4.73,3.21-7.21,4.54-2.48,1.33-4.95,2.39-7.41,3.19-2.46.8-4.8,1.2-7.03,1.2-2.89,0-5.41-.47-7.56-1.41-2.15-.94-3.95-2.17-5.39-3.69-1.45-1.52-2.52-3.26-3.22-5.21-.7-1.95-1.05-3.95-1.05-5.98,0-1.88.33-4.05,1-6.53.46-1.72,1.02-3.44,1.67-5.18-1.1.64-2.25,1.29-3.45,1.96-2.52,1.39-5.19,2.81-8,4.28s-5.61,2.88-8.38,4.25c-2.77,1.37-5.47,2.68-8.09,3.93-2.62,1.25-4.98,2.36-7.09,3.34-1.37.62-2.72,1.38-4.07,2.26s-2.66,1.72-3.93,2.52c-1.27.8-2.5,1.49-3.69,2.05-1.19.57-2.31.85-3.37.85-1.13,0-2.22-.14-3.25-.41-1.04-.27-1.95-.69-2.75-1.26-.8-.57-1.44-1.3-1.9-2.2-.47-.9-.7-1.99-.7-3.28,0-1.05.37-1.96,1.11-2.72.74-.76,1.65-1.43,2.72-1.99,1.07-.57,2.21-1.05,3.4-1.46,1.19-.41,2.22-.77,3.08-1.08,1.17-.43,2.28-.79,3.31-1.08,1.03-.29,1.88-.62,2.55-.97,1.05-.59,2.05-1.34,2.99-2.26.94-.92,1.83-1.93,2.67-3.05.84-1.11,1.63-2.29,2.37-3.52.74-1.23,1.44-2.41,2.11-3.54.43-.7.8-1.5,1.11-2.4.31-.9.59-1.8.82-2.7.23-.9.41-1.75.53-2.55.12-.8.18-1.49.18-2.08,0-2.07-.35-3.72-1.05-4.95s-1.58-1.85-2.64-1.85c-.86,0-1.88.32-3.05.97s-2.36,1.43-3.57,2.34c-1.21.92-2.36,1.89-3.46,2.9-1.09,1.02-1.97,1.88-2.64,2.58-1.56,1.68-3.21,3.56-4.95,5.65-1.74,2.09-3.4,4.26-4.98,6.5-1.58,2.25-3.03,4.53-4.34,6.86-1.31,2.32-2.33,4.6-3.08,6.83-.47,1.33-.82,2.85-1.05,4.57-.23,1.72-.42,3.52-.56,5.39-.14,1.88-.24,3.78-.32,5.71-.08,1.93-.18,3.8-.29,5.6-.2,2.93-.3,5.85-.32,8.76-.02,2.91-.26,5.58-.73,8-.16.78-.43,1.52-.82,2.23-.39.7-.89,1.33-1.49,1.88-.61.55-1.32.99-2.14,1.32-.82.33-1.74.5-2.75.5-.62,0-1.34-.15-2.14-.44-.8-.29-1.55-.7-2.26-1.23s-1.3-1.13-1.79-1.82c-.49-.68-.73-1.42-.73-2.2,0-.82.04-1.81.12-2.96.08-1.15.18-2.38.32-3.69.14-1.31.28-2.64.44-3.98.16-1.35.31-2.62.47-3.81.16-1.19.29-2.26.41-3.19s.21-1.64.29-2.11c.51-3.71.98-7.9,1.41-12.57.43-4.67.76-9.46,1-14.38.08-1.25.15-2.81.21-4.69s.12-3.76.18-5.65c.06-1.89.12-3.63.18-5.21s.11-2.72.15-3.43c.35-4.1,1.15-7.17,2.4-9.2,1.25-2.03,3.07-3.05,5.45-3.05.94,0,1.84.21,2.7.62.86.41,1.61.96,2.26,1.64.64.68,1.16,1.44,1.55,2.26.39.82.59,1.64.59,2.46,0,.74-.08,1.7-.23,2.87-.16,1.17-.34,2.4-.56,3.69-.21,1.29-.45,2.56-.7,3.81-.25,1.25-.48,2.31-.67,3.16.82-1.37,1.71-2.81,2.67-4.34.96-1.52,1.92-3.02,2.9-4.48.98-1.46,1.95-2.83,2.93-4.1.98-1.27,1.91-2.33,2.81-3.19,1.64-1.6,3.3-3.1,4.98-4.48,1.68-1.39,3.4-2.59,5.16-3.6,1.76-1.02,3.59-1.82,5.51-2.4,1.91-.59,3.93-.88,6.04-.88,1.64,0,3.27.4,4.89,1.2,1.62.8,3.08,1.95,4.37,3.46,1.29,1.5,2.34,3.32,3.16,5.45.82,2.13,1.23,4.54,1.23,7.24,0,1.33-.21,2.76-.62,4.31-.41,1.54-.97,3.08-1.67,4.6s-1.54,2.99-2.52,4.39c-.98,1.41-2.05,2.66-3.22,3.75,2.46-1.25,5.06-2.62,7.79-4.1,2.73-1.48,5.48-3.03,8.23-4.63,2.75-1.6,5.47-3.21,8.14-4.83,2.67-1.62,5.15-3.15,7.41-4.6,1.01-.66,1.88-1.21,2.66-1.67.93-.99,1.95-1.96,3.08-2.9,1.95-1.64,4.12-3.1,6.5-4.37,2.38-1.27,4.93-2.29,7.65-3.08,2.71-.78,5.52-1.17,8.41-1.17,2.3,0,4.57.55,6.8,1.64,2.23,1.09,4.21,2.55,5.95,4.37,1.74,1.82,3.13,3.93,4.19,6.33s1.58,4.93,1.58,7.59c0,1.25-.06,2.39-.18,3.43Zm63.72-13.15c-.25.7-.61,1.39-1.05,2.05-.45.66-1,1.24-1.64,1.73-.64.49-1.38.73-2.2.73-.47,0-1.1-.02-1.9-.06-.8-.04-1.57-.06-2.31-.06-1.6,0-3.17.48-4.72,1.44-1.54.96-3.06,2.35-4.54,4.19-.94,1.17-1.96,2.68-3.08,4.51-1.11,1.84-2.22,3.86-3.31,6.06-1.09,2.21-2.17,4.49-3.22,6.86-1.05,2.36-1.99,4.64-2.81,6.83-.43,1.09-.85,2.29-1.26,3.6-.41,1.31-.79,2.64-1.14,3.98s-.67,2.72-.97,4.1c-.29,1.39-.56,2.72-.79,4.01-.04.43-.34.88-.91,1.35-.57.47-1.23.9-1.99,1.29-.76.39-1.5.72-2.23,1-.72.27-1.24.43-1.55.47-1.49,0-2.72-.49-3.69-1.46s-1.75-2.19-2.31-3.63c-.57-1.44-.96-3.01-1.17-4.69-.21-1.68-.32-3.22-.32-4.63,0-1.13.02-2.51.06-4.13.04-1.62.1-3.34.18-5.16.08-1.82.15-3.66.21-5.54s.13-3.64.21-5.3c.08-1.66.14-3.15.18-4.48.04-1.33.06-2.34.06-3.05v-8.23c0-.45.04-.89.12-1.32.12-1.09.42-2.09.91-2.99.49-.9,1.1-1.67,1.85-2.31.74-.64,1.56-1.14,2.46-1.49.9-.35,1.82-.53,2.75-.53.62,0,1.24.13,1.85.38.61.25,1.16.57,1.67.94.51.37.96.76,1.35,1.17.39.41.68.77.88,1.08.31.51.54,1,.67,1.46.14.47.21,1.07.21,1.82,0,.94-.05,1.88-.15,2.81-.1.94-.23,1.7-.38,2.29-.23.98-.51,2.1-.82,3.37-.31,1.27-.62,2.62-.91,4.04-.29,1.43-.57,2.93-.82,4.51-.25,1.58-.44,3.19-.56,4.83.62-1.56,1.4-3.41,2.31-5.54.92-2.13,1.94-4.31,3.08-6.53,1.13-2.23,2.33-4.38,3.6-6.47,1.27-2.09,2.55-3.9,3.84-5.42.94-1.09,1.98-2.15,3.13-3.16,1.15-1.02,2.37-1.92,3.66-2.72,1.29-.8,2.65-1.44,4.07-1.9,1.43-.47,2.9-.7,4.42-.7,1.17,0,2.31.16,3.43.47,1.11.31,2.12.77,3.02,1.38.9.61,1.62,1.34,2.17,2.2.55.86.82,1.82.82,2.87,0,.43-.13,1-.38,1.7Zm318.6,13.15c-.12,1.04-.31,2.04-.59,3.02-.27.98-.61,1.95-1,2.93-.39.98-.86,2.05-1.41,3.22-.67,1.45-1.72,3.06-3.16,4.83-1.45,1.78-3.14,3.57-5.1,5.36-1.95,1.8-4.09,3.54-6.42,5.24-2.32,1.7-4.73,3.21-7.21,4.54-2.48,1.33-4.95,2.39-7.41,3.19-2.46.8-4.8,1.2-7.03,1.2-2.89,0-5.41-.47-7.56-1.41-2.15-.94-3.95-2.17-5.39-3.69-1.45-1.52-2.52-3.26-3.22-5.21-.64-1.78-.97-3.59-1.03-5.43-1.83,1.92-3.79,3.81-5.88,5.67-2.42,2.15-5,4.22-7.73,6.21-2.7,1.95-5.35,3.47-7.97,4.54-2.62,1.07-5.1,1.61-7.44,1.61-2.73,0-5.11-.46-7.12-1.38-2.01-.92-3.73-2.17-5.16-3.75-1.43-1.58-2.59-3.4-3.49-5.45-.9-2.05-1.61-4.22-2.14-6.5-.41-1.8-.72-3.61-.93-5.44-2.03,2.63-4.07,5.1-6.13,7.38-3.13,3.46-6.22,6.41-9.29,8.85-3.07,2.44-6.07,4.33-9.02,5.65-2.95,1.33-5.77,1.99-8.47,1.99-4.69,0-8.39-1.88-11.1-5.62-2.72-3.75-4.07-9.24-4.07-16.46,0-3.79.22-7.95.67-12.48.27-2.71.61-5.45.98-8.21-.56.22-1.11.45-1.68.65-1.78.63-3.59,1.16-5.45,1.61-1.86.45-3.62.77-5.3.97-.16,0-.57.02-1.23.06-.67.04-1.46.09-2.4.15s-1.93.12-2.99.18-2.05.09-2.99.09c-.55,0-1.11,0-1.7-.03-.59-.02-1.04-.07-1.35-.15.08.59.14,1.08.18,1.49.04.41.08.78.12,1.11.04.33.06.66.06,1v7.24c0,.94-.1,1.97-.29,3.11-.2,1.13-.47,2.27-.82,3.4-.35,1.13-.77,2.22-1.26,3.25-.49,1.04-1.05,1.96-1.67,2.78-.9,1.21-2.02,2.43-3.37,3.66s-2.84,2.42-4.48,3.57c-1.64,1.15-3.39,2.23-5.24,3.22-1.86,1-3.71,1.88-5.57,2.64-1.86.76-3.68,1.36-5.48,1.79-1.8.43-3.48.64-5.04.64-2.97,0-5.42-.48-7.35-1.44s-3.48-2.25-4.63-3.87c-1.15-1.62-1.95-3.52-2.4-5.68-.45-2.17-.67-4.46-.67-6.88,0-1.91.18-3.79.56-5.62.37-1.84.87-3.65,1.49-5.45.62-1.8,1.35-3.56,2.17-5.3.6-1.28,1.23-2.54,1.85-3.81,0,0,0,0,0,0-1.82.37-3.77.71-5.86,1.03-2.09.31-4.13.57-6.12.76-1.76.16-3.27.3-4.54.44-1.27.14-2.41.25-3.43.35-1.02.1-1.97.18-2.87.23-.9.06-1.88.09-2.93.09-.08.78-.23,2.08-.47,3.9s-.5,3.89-.79,6.21c-.29,2.32-.61,4.79-.94,7.38-.33,2.6-.67,5.08-1,7.44-.33,2.36-.62,4.49-.88,6.39-.25,1.9-.46,3.31-.62,4.25-.35,2.15-.76,4.37-1.23,6.68-.47,2.3-1,4.24-1.58,5.8-.74,1.99-1.69,3.9-2.84,5.71-1.15,1.82-2.47,3.56-3.96,5.24-3.05,3.4-6.7,5.1-10.96,5.1-.94,0-1.88-.17-2.84-.5-.96-.33-1.82-.76-2.58-1.29s-1.38-1.12-1.85-1.79c-.47-.67-.7-1.33-.7-1.99,0-.62.14-1.38.41-2.26.27-.88.67-1.71,1.17-2.49.51-.78,1.09-1.46,1.76-2.02.66-.57,1.41-.85,2.23-.85.23,0,.54.03.91.09.37.06.76.14,1.17.23.41.1.82.18,1.23.23s.77.09,1.08.09c.66-.47,1.24-1.17,1.73-2.11.49-.94.92-1.99,1.29-3.16.37-1.17.71-2.41,1.03-3.72.31-1.31.59-2.59.82-3.84.51-2.62.97-5.12,1.38-7.5s.79-4.71,1.14-6.97c.35-2.26.66-4.5.94-6.71.27-2.21.49-4.44.64-6.71.08-.55.17-1.23.26-2.05.1-.82.2-1.7.29-2.64.1-.94.18-1.86.23-2.78.06-.92.09-1.75.09-2.49,0-.27-.2-.6-.59-1-.39-.39-.82-.84-1.29-1.35-.47-.51-.9-1.05-1.29-1.64-.39-.59-.59-1.19-.59-1.82.1-.86,1.04-2.43,2.8-4.71-2.08.6-4.18,1.11-6.32,1.51-2.15.41-4.24.76-6.27,1.05-2.03.29-3.85.56-5.45.79-1.09.16-2.23.29-3.4.41s-2.29.23-3.37.32c-1.08.1-2.09.21-3.05.32-.96.12-1.79.25-2.49.41-.78,3.28-1.52,6.41-2.23,9.38-.7,2.97-1.33,5.8-1.88,8.5-.16.7-.35,1.76-.59,3.16s-.46,2.86-.67,4.37c-.21,1.5-.4,2.93-.56,4.28-.16,1.35-.23,2.31-.23,2.9,0,1.25.21,2.2.62,2.84s.85,1.21,1.32,1.7c.47.49.91,1.03,1.32,1.61s.62,1.46.62,2.64c0,.78-.27,1.51-.82,2.2-.55.68-1.23,1.3-2.05,1.85-.82.55-1.71.98-2.67,1.29-.96.31-1.85.47-2.67.47-1.41,0-2.68-.37-3.81-1.11-1.13-.74-2.11-1.7-2.93-2.87s-1.45-2.5-1.88-3.98c-.43-1.48-.64-2.99-.64-4.51,0-2.58.26-5.35.79-8.32.53-2.97,1.12-6.01,1.79-9.14.27-1.29.59-2.75.97-4.39.37-1.64.72-3.23,1.05-4.78.33-1.54.62-2.95.85-4.22.23-1.27.35-2.2.35-2.78-.9.08-1.75.17-2.55.26-.8.1-1.65.15-2.55.15-1.02,0-1.9-.19-2.67-.56-.76-.37-1.41-.88-1.93-1.52s-.93-1.39-1.2-2.23c-.27-.84-.41-1.73-.41-2.67,0-.78.24-1.49.73-2.14.49-.64,1.11-1.2,1.88-1.67s1.59-.84,2.49-1.11c.9-.27,1.76-.41,2.58-.41.7,0,1.59-.06,2.67-.18,1.07-.12,2.06-.18,2.96-.18.2,0,.44-.38.73-1.14s.61-1.73.94-2.9c.33-1.17.66-2.47,1-3.9.33-1.43.64-2.8.94-4.13.29-1.33.55-2.52.76-3.57.21-1.05.38-1.8.5-2.23.62-1.84,1.19-3.81,1.7-5.92.51-2.11,1.15-4.06,1.93-5.86.78-1.8,1.78-3.28,2.99-4.45,1.21-1.17,2.83-1.76,4.86-1.76.94,0,1.69.08,2.26.23.57.16,1.02.46,1.35.91.33.45.56,1.08.67,1.9s.18,1.9.18,3.22c0,.98-.12,2.07-.35,3.28-.23,1.21-.57,2.48-1,3.81-.9,2.85-1.69,5.54-2.37,8.06-.68,2.52-1.26,4.75-1.73,6.68s-.82,3.51-1.05,4.72c-.23,1.21-.35,1.97-.35,2.29,1.56,0,3.08-.04,4.57-.12,1.48-.08,3.01-.18,4.57-.29,1.56-.12,3.18-.26,4.86-.44,1.68-.18,3.5-.38,5.45-.62,2.26-.27,4.21-.56,5.83-.85,1.62-.29,3.05-.56,4.28-.79,1.22-.23,2.33-.43,3.32-.58.09-.72.2-1.51.34-2.41.35-2.23.68-4.26,1-6.09.31-1.84.69-3.58,1.14-5.24.45-1.66,1-3.29,1.67-4.89.66-1.6,1.5-3.28,2.52-5.04.82-1.41,1.83-2.83,3.02-4.28,1.19-1.44,2.52-2.75,3.98-3.93s3.02-2.12,4.66-2.84c1.64-.72,3.3-1.08,4.98-1.08,3.52,0,6.42,1.15,8.73,3.46,2.58,2.46,3.87,5.29,3.87,8.5,0,3.91-1.5,8.09-4.51,12.54-1.88,2.89-3.96,4.34-6.27,4.34h-1.05c.51-1.91.88-3.71,1.11-5.39.23-1.68.35-3.22.35-4.63,0-.62-.04-1.45-.12-2.49-.08-1.03-.23-2.04-.47-3.02-.23-.98-.55-1.83-.94-2.55-.39-.72-.88-1.08-1.46-1.08-.39,0-.86.27-1.41.82-.55.55-1.1,1.23-1.67,2.05-.57.82-1.12,1.72-1.67,2.7-.55.98-1.04,1.91-1.46,2.81-.51,1.09-1.05,2.63-1.64,4.6-.59,1.97-1.13,4.08-1.64,6.33-.51,2.25-.96,4.49-1.35,6.74-.39,2.25-.67,4.23-.82,5.95v2.34c0,.23.27.42.82.56.55.14,1.28.24,2.2.32.92.08,1.96.13,3.13.15,1.17.02,2.36.03,3.57.03,2.03,0,3.97-.04,5.83-.12,1.85-.08,3.7-.21,5.54-.38,1.84-.18,3.7-.4,5.6-.67,1.04-.15,2.11-.32,3.2-.51.04-.06.07-.13.11-.2,1.09-1.95,2.18-3.75,3.25-5.39,1.07-1.64,2.37-3.05,3.9-4.22s3.37-2.08,5.54-2.72,4.85-.97,8.06-.97c1.33,0,2.48.14,3.46.41.98.27,1.85.66,2.64,1.17.78.51,1.49,1.14,2.14,1.9s1.3,1.63,1.96,2.61c.51.74,1,1.43,1.49,2.05.49.63,1.05,1.16,1.7,1.61.64.45,1.44.79,2.37,1.03s2.11.35,3.52.35h4.66c1.23,0,2.24,0,3.02-.03.78-.02,1.42-.05,1.9-.09.49-.04.93-.08,1.32-.12,1.52-.19,2.93-.4,4.22-.62,1.29-.21,2.56-.46,3.81-.73,1.25-.27,2.52-.6,3.81-.97.18-.05.39-.11.58-.17.5-2.88,1.03-5.75,1.59-8.56.9-4.47,1.78-8.56,2.64-12.28.7-3.05,1.46-5.68,2.26-7.91.8-2.23,1.68-4.05,2.64-5.48.96-1.43,2.02-2.48,3.19-3.16,1.17-.68,2.52-1.03,4.04-1.03,1.09,0,1.98.22,2.67.64.68.43,1.23.99,1.64,1.67.41.68.69,1.48.85,2.37.16.9.23,1.82.23,2.75,0,1.09-.25,2.65-.76,4.66-.51,2.01-1.1,4.13-1.79,6.36-.68,2.23-1.36,4.39-2.02,6.47-.67,2.09-1.15,3.78-1.46,5.07-.55,2.42-1.11,5.24-1.7,8.47s-1.12,6.55-1.61,9.99c-.49,3.44-.89,6.85-1.2,10.22-.31,3.38-.47,6.47-.47,9.29,0,2.15.16,3.94.47,5.36.31,1.43.7,2.56,1.17,3.4.47.84.98,1.43,1.52,1.76.55.33,1.05.5,1.52.5,1.72,0,3.74-.68,6.06-2.05,2.32-1.37,4.78-3.17,7.38-5.42,2.6-2.25,5.25-4.84,7.97-7.79,2.71-2.95,5.3-6.01,7.76-9.17,0,0,.01-.02.02-.03.1-1.16.22-2.34.36-3.58.21-1.82.45-3.57.7-5.27.25-1.7.52-3.04.79-4.01.59-1.91,1.93-3.73,4.04-5.45,2.03-1.64,4.3-2.46,6.8-2.46s3.81,1.52,3.81,4.57c0,1.45-.13,2.98-.38,4.6-.25,1.62-.54,3.21-.85,4.78-.51,2.85-.86,5.42-1.05,7.71-.2,2.29-.29,4.31-.29,6.06,0,1.99.12,3.93.35,5.8s.58,3.54,1.03,5.01c.45,1.46,1.02,2.65,1.7,3.54.68.9,1.49,1.35,2.43,1.35,1.17,0,2.38-.11,3.63-.32,1.25-.21,2.75-.79,4.51-1.73,3.36-1.84,6.93-4.32,10.72-7.44,1.33-1.09,2.84-2.39,4.54-3.9,1.7-1.5,3.39-3.05,5.07-4.63,1.68-1.58,3.26-3.13,4.75-4.66.31-.32.59-.62.88-.91.48-.97.96-1.93,1.47-2.86,1.25-2.29,2.46-4.17,3.63-5.65,1.37-1.76,3.03-3.46,4.98-5.1,1.95-1.64,4.12-3.1,6.5-4.37,2.38-1.27,4.93-2.29,7.65-3.08,2.71-.78,5.52-1.17,8.41-1.17,2.3,0,4.57.55,6.8,1.64,2.23,1.09,4.21,2.55,5.95,4.37,1.74,1.82,3.13,3.93,4.19,6.33s1.58,4.93,1.58,7.59c0,1.25-.06,2.39-.18,3.43Z"/>
      <path class="cls-1" d="m1841.42,696.9c-1.13,0-2.32.34-3.57,1.03-1.25.68-2.46,1.54-3.63,2.58-1.17,1.04-2.28,2.14-3.31,3.31-1.04,1.17-1.9,2.23-2.61,3.16-.7.98-1.49,2.26-2.34,3.84-.86,1.58-1.66,3.26-2.4,5.04-.74,1.78-1.37,3.56-1.88,5.36-.51,1.8-.76,3.4-.76,4.8,0,.7.13,1.41.38,2.11.25.7.61,1.34,1.05,1.9.45.57.98,1.04,1.58,1.41.61.37,1.28.56,2.02.56,1.09,0,2.5-.31,4.22-.94,1.72-.62,3.54-1.48,5.48-2.58,1.93-1.09,3.87-2.4,5.8-3.93s3.69-3.19,5.27-5.01,2.86-3.73,3.84-5.74c.98-2.01,1.46-4.07,1.46-6.18,0-3.32-.91-5.94-2.72-7.85-1.82-1.91-4.44-2.87-7.88-2.87Z"/>
    </g>
  </g>
</svg>